<?xml version="1.0" encoding="utf-8" standalone="no"?>
<!DOCTYPE svg PUBLIC "-//W3C//DTD SVG 1.1//EN"
  "http://www.w3.org/Graphics/SVG/1.1/DTD/svg11.dtd">
<svg xmlns:xlink="http://www.w3.org/1999/xlink" width="864pt" height="486pt" viewBox="0 0 864 486" xmlns="http://www.w3.org/2000/svg" version="1.1">
 <metadata>
  <rdf:RDF xmlns:dc="http://purl.org/dc/elements/1.1/" xmlns:cc="http://creativecommons.org/ns#" xmlns:rdf="http://www.w3.org/1999/02/22-rdf-syntax-ns#">
   <cc:Work>
    <dc:type rdf:resource="http://purl.org/dc/dcmitype/StillImage"/>
    <dc:format>image/svg+xml</dc:format>
    <dc:creator>
     <cc:Agent>
      <dc:title>summer-school/scripts/make_figures.py</dc:title>
     </cc:Agent>
    </dc:creator>
   </cc:Work>
  </rdf:RDF>
 </metadata>
 <defs>
  <style type="text/css">*{stroke-linejoin: round; stroke-linecap: butt}</style>
 </defs>
 <g id="figure_1">
  <g id="patch_1">
   <path d="M 0 486 
L 864 486 
L 864 0 
L 0 0 
z
" style="fill: #f7f3ea"/>
  </g>
  <g id="axes_1">
   <g id="patch_2">
    <path d="M 77.76 422.82 
L 838.08 422.82 
L 838.08 29.16 
L 77.76 29.16 
z
" style="fill: #f7f3ea"/>
   </g>
   <g id="matplotlib.axis_1">
    <g id="xtick_1">
     <g id="line2d_1"/>
     <g id="text_1">
      <text style="fill: #6f746f; font: 11px 'DejaVu Sans'; text-anchor: middle" x="101.396891" y="438.178281" transform="rotate(-0 101.396891 438.178281)">2015</text>
     </g>
    </g>
    <g id="xtick_2">
     <g id="line2d_2"/>
     <g id="text_2">
      <text style="fill: #6f746f; font: 11px 'DejaVu Sans'; text-anchor: middle" x="180.186528" y="438.178281" transform="rotate(-0 180.186528 438.178281)">2016</text>
     </g>
    </g>
    <g id="xtick_3">
     <g id="line2d_3"/>
     <g id="text_3">
      <text style="fill: #6f746f; font: 11px 'DejaVu Sans'; text-anchor: middle" x="258.976166" y="438.178281" transform="rotate(-0 258.976166 438.178281)">2017</text>
     </g>
    </g>
    <g id="xtick_4">
     <g id="line2d_4"/>
     <g id="text_4">
      <text style="fill: #6f746f; font: 11px 'DejaVu Sans'; text-anchor: middle" x="337.765803" y="438.178281" transform="rotate(-0 337.765803 438.178281)">2018</text>
     </g>
    </g>
    <g id="xtick_5">
     <g id="line2d_5"/>
     <g id="text_5">
      <text style="fill: #6f746f; font: 11px 'DejaVu Sans'; text-anchor: middle" x="416.55544" y="438.178281" transform="rotate(-0 416.55544 438.178281)">2019</text>
     </g>
    </g>
    <g id="xtick_6">
     <g id="line2d_6"/>
     <g id="text_6">
      <text style="fill: #6f746f; font: 11px 'DejaVu Sans'; text-anchor: middle" x="495.345078" y="438.178281" transform="rotate(-0 495.345078 438.178281)">2020</text>
     </g>
    </g>
    <g id="xtick_7">
     <g id="line2d_7"/>
     <g id="text_7">
      <text style="fill: #6f746f; font: 11px 'DejaVu Sans'; text-anchor: middle" x="574.134715" y="438.178281" transform="rotate(-0 574.134715 438.178281)">2021</text>
     </g>
    </g>
    <g id="xtick_8">
     <g id="line2d_8"/>
     <g id="text_8">
      <text style="fill: #6f746f; font: 11px 'DejaVu Sans'; text-anchor: middle" x="652.924352" y="438.178281" transform="rotate(-0 652.924352 438.178281)">2022</text>
     </g>
    </g>
    <g id="xtick_9">
     <g id="line2d_9"/>
     <g id="text_9">
      <text style="fill: #6f746f; font: 11px 'DejaVu Sans'; text-anchor: middle" x="731.71399" y="438.178281" transform="rotate(-0 731.71399 438.178281)">2023</text>
     </g>
    </g>
    <g id="xtick_10">
     <g id="line2d_10"/>
     <g id="text_10">
      <text style="fill: #6f746f; font: 11px 'DejaVu Sans'; text-anchor: middle" x="810.503627" y="438.178281" transform="rotate(-0 810.503627 438.178281)">2024</text>
     </g>
    </g>
   </g>
   <g id="matplotlib.axis_2">
    <g id="ytick_1">
     <g id="line2d_11">
      <path d="M 77.76 422.82 
L 838.08 422.82 
" clip-path="url(#p34533fd525)" style="fill: none; stroke: #172132; stroke-opacity: 0.1; stroke-width: 0.8; stroke-linecap: square"/>
     </g>
     <g id="line2d_12"/>
     <g id="text_11">
      <text style="fill: #172132; font: 11px 'DejaVu Sans'; text-anchor: end" x="70.76" y="426.999141" transform="rotate(-0 70.76 426.999141)">0</text>
     </g>
    </g>
    <g id="ytick_2">
     <g id="line2d_13">
      <path d="M 77.76 371.022632 
L 838.08 371.022632 
" clip-path="url(#p34533fd525)" style="fill: none; stroke: #172132; stroke-opacity: 0.1; stroke-width: 0.8; stroke-linecap: square"/>
     </g>
     <g id="line2d_14"/>
     <g id="text_12">
      <text style="fill: #172132; font: 11px 'DejaVu Sans'; text-anchor: end" x="70.76" y="375.201772" transform="rotate(-0 70.76 375.201772)">25</text>
     </g>
    </g>
    <g id="ytick_3">
     <g id="line2d_15">
      <path d="M 77.76 319.225263 
L 838.08 319.225263 
" clip-path="url(#p34533fd525)" style="fill: none; stroke: #172132; stroke-opacity: 0.1; stroke-width: 0.8; stroke-linecap: square"/>
     </g>
     <g id="line2d_16"/>
     <g id="text_13">
      <text style="fill: #172132; font: 11px 'DejaVu Sans'; text-anchor: end" x="70.76" y="323.404404" transform="rotate(-0 70.76 323.404404)">50</text>
     </g>
    </g>
    <g id="ytick_4">
     <g id="line2d_17">
      <path d="M 77.76 267.427895 
L 838.08 267.427895 
" clip-path="url(#p34533fd525)" style="fill: none; stroke: #172132; stroke-opacity: 0.1; stroke-width: 0.8; stroke-linecap: square"/>
     </g>
     <g id="line2d_18"/>
     <g id="text_14">
      <text style="fill: #172132; font: 11px 'DejaVu Sans'; text-anchor: end" x="70.76" y="271.607035" transform="rotate(-0 70.76 271.607035)">75</text>
     </g>
    </g>
    <g id="ytick_5">
     <g id="line2d_19">
      <path d="M 77.76 215.630526 
L 838.08 215.630526 
" clip-path="url(#p34533fd525)" style="fill: none; stroke: #172132; stroke-opacity: 0.1; stroke-width: 0.8; stroke-linecap: square"/>
     </g>
     <g id="line2d_20"/>
     <g id="text_15">
      <text style="fill: #172132; font: 11px 'DejaVu Sans'; text-anchor: end" x="70.76" y="219.809667" transform="rotate(-0 70.76 219.809667)">100</text>
     </g>
    </g>
    <g id="ytick_6">
     <g id="line2d_21">
      <path d="M 77.76 163.833158 
L 838.08 163.833158 
" clip-path="url(#p34533fd525)" style="fill: none; stroke: #172132; stroke-opacity: 0.1; stroke-width: 0.8; stroke-linecap: square"/>
     </g>
     <g id="line2d_22"/>
     <g id="text_16">
      <text style="fill: #172132; font: 11px 'DejaVu Sans'; text-anchor: end" x="70.76" y="168.012299" transform="rotate(-0 70.76 168.012299)">125</text>
     </g>
    </g>
    <g id="ytick_7">
     <g id="line2d_23">
      <path d="M 77.76 112.035789 
L 838.08 112.035789 
" clip-path="url(#p34533fd525)" style="fill: none; stroke: #172132; stroke-opacity: 0.1; stroke-width: 0.8; stroke-linecap: square"/>
     </g>
     <g id="line2d_24"/>
     <g id="text_17">
      <text style="fill: #172132; font: 11px 'DejaVu Sans'; text-anchor: end" x="70.76" y="116.21493" transform="rotate(-0 70.76 116.21493)">150</text>
     </g>
    </g>
    <g id="ytick_8">
     <g id="line2d_25">
      <path d="M 77.76 60.238421 
L 838.08 60.238421 
" clip-path="url(#p34533fd525)" style="fill: none; stroke: #172132; stroke-opacity: 0.1; stroke-width: 0.8; stroke-linecap: square"/>
     </g>
     <g id="line2d_26"/>
     <g id="text_18">
      <text style="fill: #172132; font: 11px 'DejaVu Sans'; text-anchor: end" x="70.76" y="64.417562" transform="rotate(-0 70.76 64.417562)">175</text>
     </g>
    </g>
    <g id="text_19">
     <text style="fill: #6f746f; font: 11px 'DejaVu Sans'; text-anchor: middle" x="43.476094" y="225.99" transform="rotate(-90 43.476094 225.99)">RMB trillion</text>
    </g>
   </g>
   <g id="PolyCollection_1">
    <path d="M 101.396891 331.863821 
L 101.396891 422.82 
L 180.186528 422.82 
L 258.976166 422.82 
L 337.765803 422.82 
L 416.55544 422.82 
L 495.345078 422.82 
L 574.134715 422.82 
L 652.924352 422.82 
L 731.71399 422.82 
L 810.503627 422.82 
L 810.503627 100.0188 
L 810.503627 100.0188 
L 731.71399 138.970421 
L 652.924352 163.211589 
L 574.134715 185.173674 
L 495.345078 214.1802 
L 416.55544 243.808295 
L 337.765803 265.977568 
L 258.976166 287.318084 
L 180.186528 306.172326 
L 101.396891 331.863821 
z
" clip-path="url(#p34533fd525)" style="fill: #4b718a; fill-opacity: 0.92"/>
   </g>
   <g id="PolyCollection_2">
    <path d="M 101.396891 323.576242 
L 101.396891 331.863821 
L 180.186528 306.172326 
L 258.976166 287.318084 
L 337.765803 265.977568 
L 416.55544 243.808295 
L 495.345078 214.1802 
L 574.134715 185.173674 
L 652.924352 163.211589 
L 731.71399 138.970421 
L 810.503627 100.0188 
L 810.503627 56.094632 
L 810.503627 56.094632 
L 731.71399 95.667821 
L 652.924352 122.809642 
L 574.134715 146.222053 
L 495.345078 180.408316 
L 416.55544 217.495232 
L 337.765803 243.808295 
L 258.976166 269.499789 
L 180.186528 290.840305 
L 101.396891 323.576242 
z
" clip-path="url(#p34533fd525)" style="fill: #c59a45; fill-opacity: 0.92"/>
   </g>
   <g id="line2d_27">
    <path d="M 101.396891 323.576242 
L 180.186528 290.840305 
L 258.976166 269.499789 
L 337.765803 243.808295 
L 416.55544 217.495232 
L 495.345078 180.408316 
L 574.134715 146.222053 
L 652.924352 122.809642 
L 731.71399 95.667821 
L 810.503627 56.094632 
" clip-path="url(#p34533fd525)" style="fill: none; stroke: #172132; stroke-width: 1.8; stroke-linecap: square"/>
   </g>
   <g id="text_20">
    <text style="fill: #172132; font: 700 13px 'DejaVu Sans'; text-anchor: end" x="802.503627" y="46.094632" transform="rotate(-0 802.503627 46.094632)">Total 177.0</text>
   </g>
   <g id="text_21">
    <text style="fill: #f7f3ea; font: 700 13px 'DejaVu Sans'" transform="translate(731.114507 246.655054)">Interbank</text>
    <text style="fill: #f7f3ea; font: 700 13px 'DejaVu Sans'" transform="translate(716.400132 261.212211)">155.8 · 88%</text>
   </g>
   <g id="text_22">
    <text style="fill: #172132; font: 700 11px 'DejaVu Sans'; text-anchor: end" x="802.624663" y="79.921421" transform="rotate(-0 802.624663 79.921421)">Exchange 21.2 · 12%</text>
   </g>
   <g id="legend_1">
    <g id="patch_3">
     <path d="M 88.56 49.078125 
L 112.56 49.078125 
L 112.56 40.678125 
L 88.56 40.678125 
z
" style="fill: #4b718a; fill-opacity: 0.92"/>
    </g>
    <g id="text_23">
     <text style="fill: #172132; font: 12px 'DejaVu Sans'; text-anchor: start" x="122.16" y="49.078125" transform="rotate(-0 122.16 49.078125)">Interbank market</text>
    </g>
    <g id="patch_4">
     <path d="M 250.243125 49.078125 
L 274.243125 49.078125 
L 274.243125 40.678125 
L 250.243125 40.678125 
z
" style="fill: #c59a45; fill-opacity: 0.92"/>
    </g>
    <g id="text_24">
     <text style="fill: #172132; font: 12px 'DejaVu Sans'; text-anchor: start" x="283.843125" y="49.078125" transform="rotate(-0 283.843125 49.078125)">Exchange market</text>
    </g>
   </g>
  </g>
 </g>
 <defs>
  <clipPath id="p34533fd525">
   <rect x="77.76" y="29.16" width="760.32" height="393.66"/>
  </clipPath>
 </defs>
</svg>
