<?xml version="1.0" encoding="utf-8" standalone="no"?>
<!DOCTYPE svg PUBLIC "-//W3C//DTD SVG 1.1//EN"
  "http://www.w3.org/Graphics/SVG/1.1/DTD/svg11.dtd">
<svg xmlns:xlink="http://www.w3.org/1999/xlink" width="864pt" height="486pt" viewBox="0 0 864 486" xmlns="http://www.w3.org/2000/svg" version="1.1">
 <metadata>
  <rdf:RDF xmlns:dc="http://purl.org/dc/elements/1.1/" xmlns:cc="http://creativecommons.org/ns#" xmlns:rdf="http://www.w3.org/1999/02/22-rdf-syntax-ns#">
   <cc:Work>
    <dc:type rdf:resource="http://purl.org/dc/dcmitype/StillImage"/>
    <dc:format>image/svg+xml</dc:format>
    <dc:creator>
     <cc:Agent>
      <dc:title>summer-school/scripts/make_figures.py</dc:title>
     </cc:Agent>
    </dc:creator>
   </cc:Work>
  </rdf:RDF>
 </metadata>
 <defs>
  <style type="text/css">*{stroke-linejoin: round; stroke-linecap: butt}</style>
 </defs>
 <g id="figure_1">
  <g id="patch_1">
   <path d="M 0 486 
L 864 486 
L 864 0 
L 0 0 
z
" style="fill: #f7f3ea"/>
  </g>
  <g id="axes_1">
   <g id="patch_2">
    <path d="M 77.76 422.82 
L 838.08 422.82 
L 838.08 29.16 
L 77.76 29.16 
z
" style="fill: #f7f3ea"/>
   </g>
   <g id="matplotlib.axis_1">
    <g id="xtick_1">
     <g id="line2d_1"/>
     <g id="text_1">
      <text style="fill: #6f746f; font: 11px 'DejaVu Sans'; text-anchor: middle" x="98.763315" y="438.178281" transform="rotate(-0 98.763315 438.178281)">2007</text>
     </g>
    </g>
    <g id="xtick_2">
     <g id="line2d_2"/>
     <g id="text_2">
      <text style="fill: #6f746f; font: 11px 'DejaVu Sans'; text-anchor: middle" x="224.783204" y="438.178281" transform="rotate(-0 224.783204 438.178281)">2010</text>
     </g>
    </g>
    <g id="xtick_3">
     <g id="line2d_3"/>
     <g id="text_3">
      <text style="fill: #6f746f; font: 11px 'DejaVu Sans'; text-anchor: middle" x="350.803094" y="438.178281" transform="rotate(-0 350.803094 438.178281)">2013</text>
     </g>
    </g>
    <g id="xtick_4">
     <g id="line2d_4"/>
     <g id="text_4">
      <text style="fill: #6f746f; font: 11px 'DejaVu Sans'; text-anchor: middle" x="476.822983" y="438.178281" transform="rotate(-0 476.822983 438.178281)">2016</text>
     </g>
    </g>
    <g id="xtick_5">
     <g id="line2d_5"/>
     <g id="text_5">
      <text style="fill: #6f746f; font: 11px 'DejaVu Sans'; text-anchor: middle" x="602.842873" y="438.178281" transform="rotate(-0 602.842873 438.178281)">2019</text>
     </g>
    </g>
    <g id="xtick_6">
     <g id="line2d_6"/>
     <g id="text_6">
      <text style="fill: #6f746f; font: 11px 'DejaVu Sans'; text-anchor: middle" x="728.862762" y="438.178281" transform="rotate(-0 728.862762 438.178281)">2022</text>
     </g>
    </g>
    <g id="xtick_7">
     <g id="line2d_7"/>
     <g id="text_7">
      <text style="fill: #6f746f; font: 11px 'DejaVu Sans'; text-anchor: middle" x="812.876022" y="438.178281" transform="rotate(-0 812.876022 438.178281)">2024</text>
     </g>
    </g>
   </g>
   <g id="matplotlib.axis_2">
    <g id="ytick_1">
     <g id="line2d_8">
      <path d="M 77.76 422.82 
L 838.08 422.82 
" clip-path="url(#p34533fd525)" style="fill: none; stroke: #172132; stroke-opacity: 0.1; stroke-width: 0.8; stroke-linecap: square"/>
     </g>
     <g id="line2d_9"/>
     <g id="text_8">
      <text style="fill: #172132; font: 11px 'DejaVu Sans'; text-anchor: end" x="70.76" y="426.999141" transform="rotate(-0 70.76 426.999141)">0</text>
     </g>
    </g>
    <g id="ytick_2">
     <g id="line2d_10">
      <path d="M 77.76 364.928824 
L 838.08 364.928824 
" clip-path="url(#p34533fd525)" style="fill: none; stroke: #172132; stroke-opacity: 0.1; stroke-width: 0.8; stroke-linecap: square"/>
     </g>
     <g id="line2d_11"/>
     <g id="text_9">
      <text style="fill: #172132; font: 11px 'DejaVu Sans'; text-anchor: end" x="70.76" y="369.107964" transform="rotate(-0 70.76 369.107964)">5</text>
     </g>
    </g>
    <g id="ytick_3">
     <g id="line2d_12">
      <path d="M 77.76 307.037647 
L 838.08 307.037647 
" clip-path="url(#p34533fd525)" style="fill: none; stroke: #172132; stroke-opacity: 0.1; stroke-width: 0.8; stroke-linecap: square"/>
     </g>
     <g id="line2d_13"/>
     <g id="text_10">
      <text style="fill: #172132; font: 11px 'DejaVu Sans'; text-anchor: end" x="70.76" y="311.216788" transform="rotate(-0 70.76 311.216788)">10</text>
     </g>
    </g>
    <g id="ytick_4">
     <g id="line2d_14">
      <path d="M 77.76 249.146471 
L 838.08 249.146471 
" clip-path="url(#p34533fd525)" style="fill: none; stroke: #172132; stroke-opacity: 0.1; stroke-width: 0.8; stroke-linecap: square"/>
     </g>
     <g id="line2d_15"/>
     <g id="text_11">
      <text style="fill: #172132; font: 11px 'DejaVu Sans'; text-anchor: end" x="70.76" y="253.325611" transform="rotate(-0 70.76 253.325611)">15</text>
     </g>
    </g>
    <g id="ytick_5">
     <g id="line2d_16">
      <path d="M 77.76 191.255294 
L 838.08 191.255294 
" clip-path="url(#p34533fd525)" style="fill: none; stroke: #172132; stroke-opacity: 0.1; stroke-width: 0.8; stroke-linecap: square"/>
     </g>
     <g id="line2d_17"/>
     <g id="text_12">
      <text style="fill: #172132; font: 11px 'DejaVu Sans'; text-anchor: end" x="70.76" y="195.434435" transform="rotate(-0 70.76 195.434435)">20</text>
     </g>
    </g>
    <g id="ytick_6">
     <g id="line2d_18">
      <path d="M 77.76 133.364118 
L 838.08 133.364118 
" clip-path="url(#p34533fd525)" style="fill: none; stroke: #172132; stroke-opacity: 0.1; stroke-width: 0.8; stroke-linecap: square"/>
     </g>
     <g id="line2d_19"/>
     <g id="text_13">
      <text style="fill: #172132; font: 11px 'DejaVu Sans'; text-anchor: end" x="70.76" y="137.543258" transform="rotate(-0 70.76 137.543258)">25</text>
     </g>
    </g>
    <g id="ytick_7">
     <g id="line2d_20">
      <path d="M 77.76 75.472941 
L 838.08 75.472941 
" clip-path="url(#p34533fd525)" style="fill: none; stroke: #172132; stroke-opacity: 0.1; stroke-width: 0.8; stroke-linecap: square"/>
     </g>
     <g id="line2d_21"/>
     <g id="text_14">
      <text style="fill: #172132; font: 11px 'DejaVu Sans'; text-anchor: end" x="70.76" y="79.652082" transform="rotate(-0 70.76 79.652082)">30</text>
     </g>
    </g>
    <g id="text_15">
     <text style="fill: #6f746f; font: 11px 'DejaVu Sans'; text-anchor: middle" x="50.474844" y="225.99" transform="rotate(-90 50.474844 225.99)">RMB trillion</text>
    </g>
   </g>
   <g id="PolyCollection_1">
    <defs>
     <path id="m2685ad2b36" d="M 98.763315 -63.18 
L 98.763315 -67.13281 
L 140.769945 -68.379785 
L 182.776575 -68.907753 
L 224.783204 -70.448816 
L 266.789834 -72.938137 
L 308.796464 -77.60185 
L 350.803094 -85.705457 
L 392.809724 -92.959221 
L 434.816354 -109.495257 
L 476.822983 -154.551959 
L 518.829613 -174.266221 
L 560.836243 -187.391308 
L 602.842873 -210.181907 
L 644.849503 -252.222479 
L 686.856133 -279.410491 
L 728.862762 -298.218176 
L 770.869392 -381.002559 
L 812.876022 -414.579441 
L 812.876022 -63.18 
L 812.876022 -63.18 
L 770.869392 -63.18 
L 728.862762 -63.18 
L 686.856133 -63.18 
L 644.849503 -63.18 
L 602.842873 -63.18 
L 560.836243 -63.18 
L 518.829613 -63.18 
L 476.822983 -63.18 
L 434.816354 -63.18 
L 392.809724 -63.18 
L 350.803094 -63.18 
L 308.796464 -63.18 
L 266.789834 -63.18 
L 224.783204 -63.18 
L 182.776575 -63.18 
L 140.769945 -63.18 
L 98.763315 -63.18 
z
" style="stroke: #4b718a; stroke-opacity: 0.1"/>
    </defs>
    <g clip-path="url(#p34533fd525)">
     <use xlink:href="#m2685ad2b36" x="0" y="486" style="fill: #4b718a; fill-opacity: 0.1; stroke: #4b718a; stroke-opacity: 0.1"/>
    </g>
   </g>
   <g id="line2d_22">
    <path d="M 98.763315 418.86719 
L 140.769945 417.620215 
L 182.776575 417.092247 
L 224.783204 415.551184 
L 266.789834 413.061863 
L 308.796464 408.39815 
L 350.803094 400.294543 
L 392.809724 393.040779 
L 434.816354 376.504743 
L 476.822983 331.448041 
L 518.829613 311.733779 
L 560.836243 298.608692 
L 602.842873 275.818093 
L 644.849503 233.777521 
L 686.856133 206.589509 
L 728.862762 187.781824 
L 770.869392 104.997441 
L 812.876022 71.420559 
" clip-path="url(#p34533fd525)" style="fill: none; stroke: #4b718a; stroke-width: 3.2; stroke-linecap: square"/>
    <defs>
     <path id="me55d92ea5f" d="M 0 2.75 
C 0.729309 2.75 1.428845 2.460243 1.944544 1.944544 
C 2.460243 1.428845 2.75 0.729309 2.75 0 
C 2.75 -0.729309 2.460243 -1.428845 1.944544 -1.944544 
C 1.428845 -2.460243 0.729309 -2.75 0 -2.75 
C -0.729309 -2.75 -1.428845 -2.460243 -1.944544 -1.944544 
C -2.460243 -1.428845 -2.75 -0.729309 -2.75 0 
C -2.75 0.729309 -2.460243 1.428845 -1.944544 1.944544 
C -1.428845 2.460243 -0.729309 2.75 0 2.75 
z
" style="stroke: #4b718a"/>
    </defs>
    <g clip-path="url(#p34533fd525)">
     <use xlink:href="#me55d92ea5f" x="98.763315" y="418.86719" style="fill: #4b718a; stroke: #4b718a"/>
     <use xlink:href="#me55d92ea5f" x="140.769945" y="417.620215" style="fill: #4b718a; stroke: #4b718a"/>
     <use xlink:href="#me55d92ea5f" x="182.776575" y="417.092247" style="fill: #4b718a; stroke: #4b718a"/>
     <use xlink:href="#me55d92ea5f" x="224.783204" y="415.551184" style="fill: #4b718a; stroke: #4b718a"/>
     <use xlink:href="#me55d92ea5f" x="266.789834" y="413.061863" style="fill: #4b718a; stroke: #4b718a"/>
     <use xlink:href="#me55d92ea5f" x="308.796464" y="408.39815" style="fill: #4b718a; stroke: #4b718a"/>
     <use xlink:href="#me55d92ea5f" x="350.803094" y="400.294543" style="fill: #4b718a; stroke: #4b718a"/>
     <use xlink:href="#me55d92ea5f" x="392.809724" y="393.040779" style="fill: #4b718a; stroke: #4b718a"/>
     <use xlink:href="#me55d92ea5f" x="434.816354" y="376.504743" style="fill: #4b718a; stroke: #4b718a"/>
     <use xlink:href="#me55d92ea5f" x="476.822983" y="331.448041" style="fill: #4b718a; stroke: #4b718a"/>
     <use xlink:href="#me55d92ea5f" x="518.829613" y="311.733779" style="fill: #4b718a; stroke: #4b718a"/>
     <use xlink:href="#me55d92ea5f" x="560.836243" y="298.608692" style="fill: #4b718a; stroke: #4b718a"/>
     <use xlink:href="#me55d92ea5f" x="602.842873" y="275.818093" style="fill: #4b718a; stroke: #4b718a"/>
     <use xlink:href="#me55d92ea5f" x="644.849503" y="233.777521" style="fill: #4b718a; stroke: #4b718a"/>
     <use xlink:href="#me55d92ea5f" x="686.856133" y="206.589509" style="fill: #4b718a; stroke: #4b718a"/>
     <use xlink:href="#me55d92ea5f" x="728.862762" y="187.781824" style="fill: #4b718a; stroke: #4b718a"/>
     <use xlink:href="#me55d92ea5f" x="770.869392" y="104.997441" style="fill: #4b718a; stroke: #4b718a"/>
     <use xlink:href="#me55d92ea5f" x="812.876022" y="71.420559" style="fill: #4b718a; stroke: #4b718a"/>
    </g>
   </g>
   <g id="text_16">
    <text style="fill: #c9583e; font: 700 13px 'DejaVu Sans'; text-anchor: end" x="802.876022" y="59.420559" transform="rotate(-0 802.876022 59.420559)">30.35</text>
   </g>
   <g id="text_17">
    <text style="fill: #6f746f; font: 11px 'DejaVu Sans'; text-anchor: start" x="106.763315" y="406.86719" transform="rotate(-0 106.763315 406.86719)">0.34</text>
   </g>
  </g>
 </g>
 <defs>
  <clipPath id="p34533fd525">
   <rect x="77.76" y="29.16" width="760.32" height="393.66"/>
  </clipPath>
 </defs>
</svg>
