<?xml version="1.0" encoding="utf-8" standalone="no"?>
<!DOCTYPE svg PUBLIC "-//W3C//DTD SVG 1.1//EN"
  "http://www.w3.org/Graphics/SVG/1.1/DTD/svg11.dtd">
<svg xmlns:xlink="http://www.w3.org/1999/xlink" width="864pt" height="486pt" viewBox="0 0 864 486" xmlns="http://www.w3.org/2000/svg" version="1.1">
 <metadata>
  <rdf:RDF xmlns:dc="http://purl.org/dc/elements/1.1/" xmlns:cc="http://creativecommons.org/ns#" xmlns:rdf="http://www.w3.org/1999/02/22-rdf-syntax-ns#">
   <cc:Work>
    <dc:type rdf:resource="http://purl.org/dc/dcmitype/StillImage"/>
    <dc:format>image/svg+xml</dc:format>
    <dc:creator>
     <cc:Agent>
      <dc:title>summer-school/scripts/make_figures.py</dc:title>
     </cc:Agent>
    </dc:creator>
   </cc:Work>
  </rdf:RDF>
 </metadata>
 <defs>
  <style type="text/css">*{stroke-linejoin: round; stroke-linecap: butt}</style>
 </defs>
 <g id="figure_1">
  <g id="patch_1">
   <path d="M 0 486 
L 864 486 
L 864 0 
L 0 0 
z
" style="fill: #f7f3ea"/>
  </g>
  <g id="axes_1">
   <g id="patch_2">
    <path d="M 69.12 214.937419 
L 392.18087 214.937419 
L 392.18087 77.76 
L 69.12 77.76 
z
" style="fill: #f7f3ea"/>
   </g>
   <g id="matplotlib.axis_1">
    <g id="xtick_1">
     <g id="line2d_1"/>
    </g>
    <g id="xtick_2">
     <g id="line2d_2"/>
    </g>
    <g id="xtick_3">
     <g id="line2d_3"/>
    </g>
    <g id="xtick_4">
     <g id="line2d_4"/>
    </g>
    <g id="xtick_5">
     <g id="line2d_5"/>
    </g>
    <g id="xtick_6">
     <g id="line2d_6"/>
    </g>
   </g>
   <g id="matplotlib.axis_2">
    <g id="ytick_1">
     <g id="line2d_7">
      <path d="M 69.12 214.937419 
L 392.18087 214.937419 
" clip-path="url(#p76bec567dc)" style="fill: none; stroke: #172132; stroke-opacity: 0.1; stroke-width: 0.8; stroke-linecap: square"/>
     </g>
     <g id="line2d_8"/>
     <g id="text_1">
      <text style="fill: #172132; font: 11px 'DejaVu Sans'; text-anchor: end" x="62.12" y="219.11656" transform="rotate(-0 62.12 219.11656)">0</text>
     </g>
    </g>
    <g id="ytick_2">
     <g id="line2d_9">
      <path d="M 69.12 169.211613 
L 392.18087 169.211613 
" clip-path="url(#p76bec567dc)" style="fill: none; stroke: #172132; stroke-opacity: 0.1; stroke-width: 0.8; stroke-linecap: square"/>
     </g>
     <g id="line2d_10"/>
     <g id="text_2">
      <text style="fill: #172132; font: 11px 'DejaVu Sans'; text-anchor: end" x="62.12" y="173.390754" transform="rotate(-0 62.12 173.390754)">30</text>
     </g>
    </g>
    <g id="ytick_3">
     <g id="line2d_11">
      <path d="M 69.12 123.485806 
L 392.18087 123.485806 
" clip-path="url(#p76bec567dc)" style="fill: none; stroke: #172132; stroke-opacity: 0.1; stroke-width: 0.8; stroke-linecap: square"/>
     </g>
     <g id="line2d_12"/>
     <g id="text_3">
      <text style="fill: #172132; font: 11px 'DejaVu Sans'; text-anchor: end" x="62.12" y="127.664947" transform="rotate(-0 62.12 127.664947)">60</text>
     </g>
    </g>
    <g id="ytick_4">
     <g id="line2d_13">
      <path d="M 69.12 77.76 
L 392.18087 77.76 
" clip-path="url(#p76bec567dc)" style="fill: none; stroke: #172132; stroke-opacity: 0.1; stroke-width: 0.8; stroke-linecap: square"/>
     </g>
     <g id="line2d_14"/>
     <g id="text_4">
      <text style="fill: #172132; font: 11px 'DejaVu Sans'; text-anchor: end" x="62.12" y="81.939141" transform="rotate(-0 62.12 81.939141)">90</text>
     </g>
    </g>
    <g id="text_5">
     <text style="fill: #6f746f; font: 9.5px 'DejaVu Sans'; text-anchor: middle" x="42.146797" y="146.34871" transform="rotate(-90 42.146797 146.34871)">RMB tn · 0–90 scale</text>
    </g>
   </g>
   <g id="line2d_15">
    <path d="M 76.811925 209.994409 
L 92.195776 201.310538 
L 107.579627 165.051895 
L 122.963478 196.412202 
L 138.347329 177.976666 
L 153.73118 175.604486 
L 169.115031 183.33718 
L 184.498882 181.157276 
L 199.882733 180.797744 
L 215.266584 161.484558 
L 230.650435 142.479087 
L 246.034286 145.520855 
L 261.418137 136.319933 
L 276.801988 154.813404 
L 292.185839 135.229823 
L 307.569689 115.192834 
L 322.95354 105.265243 
L 338.337391 120.874316 
L 353.721242 123.824273 
L 369.105093 113.311693 
L 384.488944 93.046971 
" clip-path="url(#p76bec567dc)" style="fill: none; stroke: #c9583e; stroke-width: 2.5; stroke-linecap: square"/>
    <defs>
     <path id="macda25b6dd" d="M 0 2.25 
C 0.596707 2.25 1.169055 2.012926 1.59099 1.59099 
C 2.012926 1.169055 2.25 0.596707 2.25 0 
C 2.25 -0.596707 2.012926 -1.169055 1.59099 -1.59099 
C 1.169055 -2.012926 0.596707 -2.25 0 -2.25 
C -0.596707 -2.25 -1.169055 -2.012926 -1.59099 -1.59099 
C -2.012926 -1.169055 -2.25 -0.596707 -2.25 0 
C -2.25 0.596707 -2.012926 1.169055 -1.59099 1.59099 
C -1.169055 2.012926 -0.596707 2.25 0 2.25 
z
" style="stroke: #c9583e"/>
    </defs>
    <g clip-path="url(#p76bec567dc)">
     <use xlink:href="#macda25b6dd" x="76.811925" y="209.994409" style="fill: #c9583e; stroke: #c9583e"/>
     <use xlink:href="#macda25b6dd" x="92.195776" y="201.310538" style="fill: #c9583e; stroke: #c9583e"/>
     <use xlink:href="#macda25b6dd" x="107.579627" y="165.051895" style="fill: #c9583e; stroke: #c9583e"/>
     <use xlink:href="#macda25b6dd" x="122.963478" y="196.412202" style="fill: #c9583e; stroke: #c9583e"/>
     <use xlink:href="#macda25b6dd" x="138.347329" y="177.976666" style="fill: #c9583e; stroke: #c9583e"/>
     <use xlink:href="#macda25b6dd" x="153.73118" y="175.604486" style="fill: #c9583e; stroke: #c9583e"/>
     <use xlink:href="#macda25b6dd" x="169.115031" y="183.33718" style="fill: #c9583e; stroke: #c9583e"/>
     <use xlink:href="#macda25b6dd" x="184.498882" y="181.157276" style="fill: #c9583e; stroke: #c9583e"/>
     <use xlink:href="#macda25b6dd" x="199.882733" y="180.797744" style="fill: #c9583e; stroke: #c9583e"/>
     <use xlink:href="#macda25b6dd" x="215.266584" y="161.484558" style="fill: #c9583e; stroke: #c9583e"/>
     <use xlink:href="#macda25b6dd" x="230.650435" y="142.479087" style="fill: #c9583e; stroke: #c9583e"/>
     <use xlink:href="#macda25b6dd" x="246.034286" y="145.520855" style="fill: #c9583e; stroke: #c9583e"/>
     <use xlink:href="#macda25b6dd" x="261.418137" y="136.319933" style="fill: #c9583e; stroke: #c9583e"/>
     <use xlink:href="#macda25b6dd" x="276.801988" y="154.813404" style="fill: #c9583e; stroke: #c9583e"/>
     <use xlink:href="#macda25b6dd" x="292.185839" y="135.229823" style="fill: #c9583e; stroke: #c9583e"/>
     <use xlink:href="#macda25b6dd" x="307.569689" y="115.192834" style="fill: #c9583e; stroke: #c9583e"/>
     <use xlink:href="#macda25b6dd" x="322.95354" y="105.265243" style="fill: #c9583e; stroke: #c9583e"/>
     <use xlink:href="#macda25b6dd" x="338.337391" y="120.874316" style="fill: #c9583e; stroke: #c9583e"/>
     <use xlink:href="#macda25b6dd" x="353.721242" y="123.824273" style="fill: #c9583e; stroke: #c9583e"/>
     <use xlink:href="#macda25b6dd" x="369.105093" y="113.311693" style="fill: #c9583e; stroke: #c9583e"/>
     <use xlink:href="#macda25b6dd" x="384.488944" y="93.046971" style="fill: #c9583e; stroke: #c9583e"/>
    </g>
   </g>
   <g id="text_6">
    <text style="fill: #c9583e; font: 700 10px 'DejaVu Sans'" transform="translate(310.633606 90.20744)">Main Boards</text>
    <text style="fill: #c9583e; font: 700 10px 'DejaVu Sans'" transform="translate(355.971106 101.405252)">80.0</text>
   </g>
  </g>
  <g id="axes_2">
   <g id="patch_3">
    <path d="M 489.09913 214.937419 
L 812.16 214.937419 
L 812.16 77.76 
L 489.09913 77.76 
z
" style="fill: #f7f3ea"/>
   </g>
   <g id="matplotlib.axis_3">
    <g id="xtick_7">
     <g id="line2d_16"/>
    </g>
    <g id="xtick_8">
     <g id="line2d_17"/>
    </g>
    <g id="xtick_9">
     <g id="line2d_18"/>
    </g>
    <g id="xtick_10">
     <g id="line2d_19"/>
    </g>
    <g id="xtick_11">
     <g id="line2d_20"/>
    </g>
    <g id="xtick_12">
     <g id="line2d_21"/>
    </g>
   </g>
   <g id="matplotlib.axis_4">
    <g id="ytick_5">
     <g id="line2d_22">
      <path d="M 489.09913 214.937419 
L 812.16 214.937419 
" clip-path="url(#p00a870b6e0)" style="fill: none; stroke: #172132; stroke-opacity: 0.1; stroke-width: 0.8; stroke-linecap: square"/>
     </g>
     <g id="line2d_23"/>
     <g id="text_7">
      <text style="fill: #172132; font: 11px 'DejaVu Sans'; text-anchor: end" x="482.09913" y="219.11656" transform="rotate(-0 482.09913 219.11656)">0</text>
     </g>
    </g>
    <g id="ytick_6">
     <g id="line2d_24">
      <path d="M 489.09913 169.211613 
L 812.16 169.211613 
" clip-path="url(#p00a870b6e0)" style="fill: none; stroke: #172132; stroke-opacity: 0.1; stroke-width: 0.8; stroke-linecap: square"/>
     </g>
     <g id="line2d_25"/>
     <g id="text_8">
      <text style="fill: #172132; font: 11px 'DejaVu Sans'; text-anchor: end" x="482.09913" y="173.390754" transform="rotate(-0 482.09913 173.390754)">4</text>
     </g>
    </g>
    <g id="ytick_7">
     <g id="line2d_26">
      <path d="M 489.09913 123.485806 
L 812.16 123.485806 
" clip-path="url(#p00a870b6e0)" style="fill: none; stroke: #172132; stroke-opacity: 0.1; stroke-width: 0.8; stroke-linecap: square"/>
     </g>
     <g id="line2d_27"/>
     <g id="text_9">
      <text style="fill: #172132; font: 11px 'DejaVu Sans'; text-anchor: end" x="482.09913" y="127.664947" transform="rotate(-0 482.09913 127.664947)">8</text>
     </g>
    </g>
    <g id="ytick_8">
     <g id="line2d_28">
      <path d="M 489.09913 77.76 
L 812.16 77.76 
" clip-path="url(#p00a870b6e0)" style="fill: none; stroke: #172132; stroke-opacity: 0.1; stroke-width: 0.8; stroke-linecap: square"/>
     </g>
     <g id="line2d_29"/>
     <g id="text_10">
      <text style="fill: #172132; font: 11px 'DejaVu Sans'; text-anchor: end" x="482.09913" y="81.939141" transform="rotate(-0 482.09913 81.939141)">12</text>
     </g>
    </g>
    <g id="text_11">
     <text style="fill: #6f746f; font: 9.5px 'DejaVu Sans'; text-anchor: middle" x="462.125927" y="146.34871" transform="rotate(-90 462.125927 146.34871)">RMB tn · 0–12 scale</text>
    </g>
   </g>
   <g id="line2d_30">
    <path d="M 712.164969 205.063343 
L 727.54882 176.652665 
L 742.932671 150.571991 
L 758.316522 148.462431 
L 773.700373 144.499764 
L 789.084224 142.428865 
L 804.468075 96.969411 
" clip-path="url(#p00a870b6e0)" style="fill: none; stroke: #4b718a; stroke-width: 2.5; stroke-linecap: square"/>
    <defs>
     <path id="m10a770b451" d="M 0 2.25 
C 0.596707 2.25 1.169055 2.012926 1.59099 1.59099 
C 2.012926 1.169055 2.25 0.596707 2.25 0 
C 2.25 -0.596707 2.012926 -1.169055 1.59099 -1.59099 
C 1.169055 -2.012926 0.596707 -2.25 0 -2.25 
C -0.596707 -2.25 -1.169055 -2.012926 -1.59099 -1.59099 
C -2.012926 -1.169055 -2.25 -0.596707 -2.25 0 
C -2.25 0.596707 -2.012926 1.169055 -1.59099 1.59099 
C -1.169055 2.012926 -0.596707 2.25 0 2.25 
z
" style="stroke: #4b718a"/>
    </defs>
    <g clip-path="url(#p00a870b6e0)">
     <use xlink:href="#m10a770b451" x="712.164969" y="205.063343" style="fill: #4b718a; stroke: #4b718a"/>
     <use xlink:href="#m10a770b451" x="727.54882" y="176.652665" style="fill: #4b718a; stroke: #4b718a"/>
     <use xlink:href="#m10a770b451" x="742.932671" y="150.571991" style="fill: #4b718a; stroke: #4b718a"/>
     <use xlink:href="#m10a770b451" x="758.316522" y="148.462431" style="fill: #4b718a; stroke: #4b718a"/>
     <use xlink:href="#m10a770b451" x="773.700373" y="144.499764" style="fill: #4b718a; stroke: #4b718a"/>
     <use xlink:href="#m10a770b451" x="789.084224" y="142.428865" style="fill: #4b718a; stroke: #4b718a"/>
     <use xlink:href="#m10a770b451" x="804.468075" y="96.969411" style="fill: #4b718a; stroke: #4b718a"/>
    </g>
   </g>
   <g id="text_12">
    <text style="fill: #4b718a; font: 700 10px 'DejaVu Sans'" transform="translate(728.872112 94.12988)">STAR Market</text>
    <text style="fill: #4b718a; font: 700 10px 'DejaVu Sans'" transform="translate(775.950237 105.327693)">10.3</text>
   </g>
  </g>
  <g id="axes_3">
   <g id="patch_4">
    <path d="M 69.12 417.96 
L 392.18087 417.96 
L 392.18087 280.782581 
L 69.12 280.782581 
z
" style="fill: #f7f3ea"/>
   </g>
   <g id="matplotlib.axis_5">
    <g id="xtick_13">
     <g id="line2d_31"/>
     <g id="text_13">
      <text style="fill: #6f746f; font: 11px 'DejaVu Sans'; text-anchor: middle" x="76.811925" y="433.318281" transform="rotate(-0 76.811925 433.318281)">2005</text>
     </g>
    </g>
    <g id="xtick_14">
     <g id="line2d_32"/>
     <g id="text_14">
      <text style="fill: #6f746f; font: 11px 'DejaVu Sans'; text-anchor: middle" x="138.347329" y="433.318281" transform="rotate(-0 138.347329 433.318281)">2009</text>
     </g>
    </g>
    <g id="xtick_15">
     <g id="line2d_33"/>
     <g id="text_15">
      <text style="fill: #6f746f; font: 11px 'DejaVu Sans'; text-anchor: middle" x="199.882733" y="433.318281" transform="rotate(-0 199.882733 433.318281)">2013</text>
     </g>
    </g>
    <g id="xtick_16">
     <g id="line2d_34"/>
     <g id="text_16">
      <text style="fill: #6f746f; font: 11px 'DejaVu Sans'; text-anchor: middle" x="261.418137" y="433.318281" transform="rotate(-0 261.418137 433.318281)">2017</text>
     </g>
    </g>
    <g id="xtick_17">
     <g id="line2d_35"/>
     <g id="text_17">
      <text style="fill: #6f746f; font: 11px 'DejaVu Sans'; text-anchor: middle" x="322.95354" y="433.318281" transform="rotate(-0 322.95354 433.318281)">2021</text>
     </g>
    </g>
    <g id="xtick_18">
     <g id="line2d_36"/>
     <g id="text_18">
      <text style="fill: #6f746f; font: 11px 'DejaVu Sans'; text-anchor: middle" x="384.488944" y="433.318281" transform="rotate(-0 384.488944 433.318281)">2025</text>
     </g>
    </g>
    <g id="text_19">
     <text style="fill: #6f746f; font: 11px 'DejaVu Sans'; text-anchor: middle" x="230.650435" y="447.964219" transform="rotate(-0 230.650435 447.964219)">Year</text>
    </g>
   </g>
   <g id="matplotlib.axis_6">
    <g id="ytick_9">
     <g id="line2d_37">
      <path d="M 69.12 417.96 
L 392.18087 417.96 
" clip-path="url(#p72895e36a0)" style="fill: none; stroke: #172132; stroke-opacity: 0.1; stroke-width: 0.8; stroke-linecap: square"/>
     </g>
     <g id="line2d_38"/>
     <g id="text_20">
      <text style="fill: #172132; font: 11px 'DejaVu Sans'; text-anchor: end" x="62.12" y="422.139141" transform="rotate(-0 62.12 422.139141)">0</text>
     </g>
    </g>
    <g id="ytick_10">
     <g id="line2d_39">
      <path d="M 69.12 383.665645 
L 392.18087 383.665645 
" clip-path="url(#p72895e36a0)" style="fill: none; stroke: #172132; stroke-opacity: 0.1; stroke-width: 0.8; stroke-linecap: square"/>
     </g>
     <g id="line2d_40"/>
     <g id="text_21">
      <text style="fill: #172132; font: 11px 'DejaVu Sans'; text-anchor: end" x="62.12" y="387.844786" transform="rotate(-0 62.12 387.844786)">5</text>
     </g>
    </g>
    <g id="ytick_11">
     <g id="line2d_41">
      <path d="M 69.12 349.37129 
L 392.18087 349.37129 
" clip-path="url(#p72895e36a0)" style="fill: none; stroke: #172132; stroke-opacity: 0.1; stroke-width: 0.8; stroke-linecap: square"/>
     </g>
     <g id="line2d_42"/>
     <g id="text_22">
      <text style="fill: #172132; font: 11px 'DejaVu Sans'; text-anchor: end" x="62.12" y="353.550431" transform="rotate(-0 62.12 353.550431)">10</text>
     </g>
    </g>
    <g id="ytick_12">
     <g id="line2d_43">
      <path d="M 69.12 315.076935 
L 392.18087 315.076935 
" clip-path="url(#p72895e36a0)" style="fill: none; stroke: #172132; stroke-opacity: 0.1; stroke-width: 0.8; stroke-linecap: square"/>
     </g>
     <g id="line2d_44"/>
     <g id="text_23">
      <text style="fill: #172132; font: 11px 'DejaVu Sans'; text-anchor: end" x="62.12" y="319.256076" transform="rotate(-0 62.12 319.256076)">15</text>
     </g>
    </g>
    <g id="ytick_13">
     <g id="line2d_45">
      <path d="M 69.12 280.782581 
L 392.18087 280.782581 
" clip-path="url(#p72895e36a0)" style="fill: none; stroke: #172132; stroke-opacity: 0.1; stroke-width: 0.8; stroke-linecap: square"/>
     </g>
     <g id="line2d_46"/>
     <g id="text_24">
      <text style="fill: #172132; font: 11px 'DejaVu Sans'; text-anchor: end" x="62.12" y="284.961721" transform="rotate(-0 62.12 284.961721)">20</text>
     </g>
    </g>
    <g id="text_25">
     <text style="fill: #6f746f; font: 9.5px 'DejaVu Sans'; text-anchor: middle" x="42.146797" y="349.37129" transform="rotate(-90 42.146797 349.37129)">RMB tn · 0–20 scale</text>
    </g>
   </g>
   <g id="line2d_47">
    <path d="M 153.73118 412.908291 
L 169.115031 412.861258 
L 184.498882 411.971379 
L 199.882733 407.608607 
L 215.266584 402.972716 
L 230.650435 379.607767 
L 246.034286 382.11931 
L 261.418137 382.781665 
L 276.801988 390.209291 
L 292.185839 375.88246 
L 307.569689 342.966106 
L 322.95354 321.770985 
L 338.337391 340.645874 
L 353.721242 339.951375 
L 369.105093 332.539125 
L 384.488944 296.366738 
" clip-path="url(#p72895e36a0)" style="fill: none; stroke: #c59a45; stroke-width: 2.5; stroke-linecap: square"/>
    <defs>
     <path id="me7d7aa6ef1" d="M 0 2.25 
C 0.596707 2.25 1.169055 2.012926 1.59099 1.59099 
C 2.012926 1.169055 2.25 0.596707 2.25 0 
C 2.25 -0.596707 2.012926 -1.169055 1.59099 -1.59099 
C 1.169055 -2.012926 0.596707 -2.25 0 -2.25 
C -0.596707 -2.25 -1.169055 -2.012926 -1.59099 -1.59099 
C -2.012926 -1.169055 -2.25 -0.596707 -2.25 0 
C -2.25 0.596707 -2.012926 1.169055 -1.59099 1.59099 
C -1.169055 2.012926 -0.596707 2.25 0 2.25 
z
" style="stroke: #c59a45"/>
    </defs>
    <g clip-path="url(#p72895e36a0)">
     <use xlink:href="#me7d7aa6ef1" x="153.73118" y="412.908291" style="fill: #c59a45; stroke: #c59a45"/>
     <use xlink:href="#me7d7aa6ef1" x="169.115031" y="412.861258" style="fill: #c59a45; stroke: #c59a45"/>
     <use xlink:href="#me7d7aa6ef1" x="184.498882" y="411.971379" style="fill: #c59a45; stroke: #c59a45"/>
     <use xlink:href="#me7d7aa6ef1" x="199.882733" y="407.608607" style="fill: #c59a45; stroke: #c59a45"/>
     <use xlink:href="#me7d7aa6ef1" x="215.266584" y="402.972716" style="fill: #c59a45; stroke: #c59a45"/>
     <use xlink:href="#me7d7aa6ef1" x="230.650435" y="379.607767" style="fill: #c59a45; stroke: #c59a45"/>
     <use xlink:href="#me7d7aa6ef1" x="246.034286" y="382.11931" style="fill: #c59a45; stroke: #c59a45"/>
     <use xlink:href="#me7d7aa6ef1" x="261.418137" y="382.781665" style="fill: #c59a45; stroke: #c59a45"/>
     <use xlink:href="#me7d7aa6ef1" x="276.801988" y="390.209291" style="fill: #c59a45; stroke: #c59a45"/>
     <use xlink:href="#me7d7aa6ef1" x="292.185839" y="375.88246" style="fill: #c59a45; stroke: #c59a45"/>
     <use xlink:href="#me7d7aa6ef1" x="307.569689" y="342.966106" style="fill: #c59a45; stroke: #c59a45"/>
     <use xlink:href="#me7d7aa6ef1" x="322.95354" y="321.770985" style="fill: #c59a45; stroke: #c59a45"/>
     <use xlink:href="#me7d7aa6ef1" x="338.337391" y="340.645874" style="fill: #c59a45; stroke: #c59a45"/>
     <use xlink:href="#me7d7aa6ef1" x="353.721242" y="339.951375" style="fill: #c59a45; stroke: #c59a45"/>
     <use xlink:href="#me7d7aa6ef1" x="369.105093" y="332.539125" style="fill: #c59a45; stroke: #c59a45"/>
     <use xlink:href="#me7d7aa6ef1" x="384.488944" y="296.366738" style="fill: #c59a45; stroke: #c59a45"/>
    </g>
   </g>
   <g id="text_26">
    <text style="fill: #c59a45; font: 700 10px 'DejaVu Sans'" transform="translate(336.375794 293.527207)">ChiNext</text>
    <text style="fill: #c59a45; font: 700 10px 'DejaVu Sans'" transform="translate(355.971106 304.725019)">17.7</text>
   </g>
  </g>
  <g id="axes_4">
   <g id="patch_5">
    <path d="M 489.09913 417.96 
L 812.16 417.96 
L 812.16 280.782581 
L 489.09913 280.782581 
z
" style="fill: #f7f3ea"/>
   </g>
   <g id="matplotlib.axis_7">
    <g id="xtick_19">
     <g id="line2d_48"/>
     <g id="text_27">
      <text style="fill: #6f746f; font: 11px 'DejaVu Sans'; text-anchor: middle" x="496.791056" y="433.318281" transform="rotate(-0 496.791056 433.318281)">2005</text>
     </g>
    </g>
    <g id="xtick_20">
     <g id="line2d_49"/>
     <g id="text_28">
      <text style="fill: #6f746f; font: 11px 'DejaVu Sans'; text-anchor: middle" x="558.32646" y="433.318281" transform="rotate(-0 558.32646 433.318281)">2009</text>
     </g>
    </g>
    <g id="xtick_21">
     <g id="line2d_50"/>
     <g id="text_29">
      <text style="fill: #6f746f; font: 11px 'DejaVu Sans'; text-anchor: middle" x="619.861863" y="433.318281" transform="rotate(-0 619.861863 433.318281)">2013</text>
     </g>
    </g>
    <g id="xtick_22">
     <g id="line2d_51"/>
     <g id="text_30">
      <text style="fill: #6f746f; font: 11px 'DejaVu Sans'; text-anchor: middle" x="681.397267" y="433.318281" transform="rotate(-0 681.397267 433.318281)">2017</text>
     </g>
    </g>
    <g id="xtick_23">
     <g id="line2d_52"/>
     <g id="text_31">
      <text style="fill: #6f746f; font: 11px 'DejaVu Sans'; text-anchor: middle" x="742.932671" y="433.318281" transform="rotate(-0 742.932671 433.318281)">2021</text>
     </g>
    </g>
    <g id="xtick_24">
     <g id="line2d_53"/>
     <g id="text_32">
      <text style="fill: #6f746f; font: 11px 'DejaVu Sans'; text-anchor: middle" x="804.468075" y="433.318281" transform="rotate(-0 804.468075 433.318281)">2025</text>
     </g>
    </g>
    <g id="text_33">
     <text style="fill: #6f746f; font: 11px 'DejaVu Sans'; text-anchor: middle" x="650.629565" y="447.964219" transform="rotate(-0 650.629565 447.964219)">Year</text>
    </g>
   </g>
   <g id="matplotlib.axis_8">
    <g id="ytick_14">
     <g id="line2d_54">
      <path d="M 489.09913 417.96 
L 812.16 417.96 
" clip-path="url(#pde4d717b02)" style="fill: none; stroke: #172132; stroke-opacity: 0.1; stroke-width: 0.8; stroke-linecap: square"/>
     </g>
     <g id="line2d_55"/>
     <g id="text_34">
      <text style="fill: #172132; font: 11px 'DejaVu Sans'; text-anchor: end" x="482.09913" y="422.139141" transform="rotate(-0 482.09913 422.139141)">0.00</text>
     </g>
    </g>
    <g id="ytick_15">
     <g id="line2d_56">
      <path d="M 489.09913 383.665645 
L 812.16 383.665645 
" clip-path="url(#pde4d717b02)" style="fill: none; stroke: #172132; stroke-opacity: 0.1; stroke-width: 0.8; stroke-linecap: square"/>
     </g>
     <g id="line2d_57"/>
     <g id="text_35">
      <text style="fill: #172132; font: 11px 'DejaVu Sans'; text-anchor: end" x="482.09913" y="387.844786" transform="rotate(-0 482.09913 387.844786)">0.25</text>
     </g>
    </g>
    <g id="ytick_16">
     <g id="line2d_58">
      <path d="M 489.09913 349.37129 
L 812.16 349.37129 
" clip-path="url(#pde4d717b02)" style="fill: none; stroke: #172132; stroke-opacity: 0.1; stroke-width: 0.8; stroke-linecap: square"/>
     </g>
     <g id="line2d_59"/>
     <g id="text_36">
      <text style="fill: #172132; font: 11px 'DejaVu Sans'; text-anchor: end" x="482.09913" y="353.550431" transform="rotate(-0 482.09913 353.550431)">0.50</text>
     </g>
    </g>
    <g id="ytick_17">
     <g id="line2d_60">
      <path d="M 489.09913 315.076935 
L 812.16 315.076935 
" clip-path="url(#pde4d717b02)" style="fill: none; stroke: #172132; stroke-opacity: 0.1; stroke-width: 0.8; stroke-linecap: square"/>
     </g>
     <g id="line2d_61"/>
     <g id="text_37">
      <text style="fill: #172132; font: 11px 'DejaVu Sans'; text-anchor: end" x="482.09913" y="319.256076" transform="rotate(-0 482.09913 319.256076)">0.75</text>
     </g>
    </g>
    <g id="ytick_18">
     <g id="line2d_62">
      <path d="M 489.09913 280.782581 
L 812.16 280.782581 
" clip-path="url(#pde4d717b02)" style="fill: none; stroke: #172132; stroke-opacity: 0.1; stroke-width: 0.8; stroke-linecap: square"/>
     </g>
     <g id="line2d_63"/>
     <g id="text_38">
      <text style="fill: #172132; font: 11px 'DejaVu Sans'; text-anchor: end" x="482.09913" y="284.961721" transform="rotate(-0 482.09913 284.961721)">1.00</text>
     </g>
    </g>
    <g id="text_39">
     <text style="fill: #6f746f; font: 9.5px 'DejaVu Sans'; text-anchor: middle" x="451.63124" y="349.37129" transform="rotate(-90 451.63124 349.37129)">RMB tn · 0–1 scale</text>
    </g>
   </g>
   <g id="line2d_64">
    <path d="M 742.932671 380.610018 
L 758.316522 389.011586 
L 773.700373 356.279408 
L 789.084224 344.076105 
L 804.468075 298.697952 
" clip-path="url(#pde4d717b02)" style="fill: none; stroke: #172132; stroke-width: 2.5; stroke-linecap: square"/>
    <defs>
     <path id="mf38a802a97" d="M 0 2.25 
C 0.596707 2.25 1.169055 2.012926 1.59099 1.59099 
C 2.012926 1.169055 2.25 0.596707 2.25 0 
C 2.25 -0.596707 2.012926 -1.169055 1.59099 -1.59099 
C 1.169055 -2.012926 0.596707 -2.25 0 -2.25 
C -0.596707 -2.25 -1.169055 -2.012926 -1.59099 -1.59099 
C -2.012926 -1.169055 -2.25 -0.596707 -2.25 0 
C -2.25 0.596707 -2.012926 1.169055 -1.59099 1.59099 
C -1.169055 2.012926 -0.596707 2.25 0 2.25 
z
" style="stroke: #172132"/>
    </defs>
    <g clip-path="url(#pde4d717b02)">
     <use xlink:href="#mf38a802a97" x="742.932671" y="380.610018" style="fill: #172132; stroke: #172132"/>
     <use xlink:href="#mf38a802a97" x="758.316522" y="389.011586" style="fill: #172132; stroke: #172132"/>
     <use xlink:href="#mf38a802a97" x="773.700373" y="356.279408" style="fill: #172132; stroke: #172132"/>
     <use xlink:href="#mf38a802a97" x="789.084224" y="344.076105" style="fill: #172132; stroke: #172132"/>
     <use xlink:href="#mf38a802a97" x="804.468075" y="298.697952" style="fill: #172132; stroke: #172132"/>
    </g>
   </g>
   <g id="text_40">
    <text style="fill: #172132; font: 700 10px 'DejaVu Sans'" transform="translate(669.128362 295.819358)">Beijing Stock Exchange</text>
    <text style="fill: #172132; font: 700 10px 'DejaVu Sans'" transform="translate(782.908049 307.095295)">0.9</text>
   </g>
  </g>
  <g id="text_41">
   <text style="fill: #6f746f; font: 10.5px 'DejaVu Sans'; text-anchor: start" x="69.12" y="36.45" transform="rotate(-0 69.12 36.45)">Year-end total market capitalisation · RMB trillion</text>
  </g>
  <g id="text_42">
   <text style="fill: #6f746f; font: 8.5px 'DejaVu Sans'" transform="translate(565.923984 459.471859)">Sources: SSE/SZSE/CSRC official year-end statistics;</text>
   <text style="fill: #6f746f; font: 8.5px 'DejaVu Sans'" transform="translate(426.701953 468.99)">BSE 2022–23 &amp; 2025: archive + year-specific secondary corroboration; see manifest</text>
  </g>
 </g>
 <defs>
  <clipPath id="p76bec567dc">
   <rect x="69.12" y="77.76" width="323.06087" height="137.177419"/>
  </clipPath>
  <clipPath id="p00a870b6e0">
   <rect x="489.09913" y="77.76" width="323.06087" height="137.177419"/>
  </clipPath>
  <clipPath id="p72895e36a0">
   <rect x="69.12" y="280.782581" width="323.06087" height="137.177419"/>
  </clipPath>
  <clipPath id="pde4d717b02">
   <rect x="489.09913" y="280.782581" width="323.06087" height="137.177419"/>
  </clipPath>
 </defs>
</svg>
