<?xml version="1.0" encoding="utf-8" standalone="no"?>
<!DOCTYPE svg PUBLIC "-//W3C//DTD SVG 1.1//EN"
  "http://www.w3.org/Graphics/SVG/1.1/DTD/svg11.dtd">
<svg xmlns:xlink="http://www.w3.org/1999/xlink" width="864pt" height="486pt" viewBox="0 0 864 486" xmlns="http://www.w3.org/2000/svg" version="1.1">
 <metadata>
  <rdf:RDF xmlns:dc="http://purl.org/dc/elements/1.1/" xmlns:cc="http://creativecommons.org/ns#" xmlns:rdf="http://www.w3.org/1999/02/22-rdf-syntax-ns#">
   <cc:Work>
    <dc:type rdf:resource="http://purl.org/dc/dcmitype/StillImage"/>
    <dc:format>image/svg+xml</dc:format>
    <dc:creator>
     <cc:Agent>
      <dc:title>summer-school/scripts/make_figures.py</dc:title>
     </cc:Agent>
    </dc:creator>
   </cc:Work>
  </rdf:RDF>
 </metadata>
 <defs>
  <style type="text/css">*{stroke-linejoin: round; stroke-linecap: butt}</style>
 </defs>
 <g id="figure_1">
  <g id="patch_1">
   <path d="M 0 486 
L 864 486 
L 864 0 
L 0 0 
z
" style="fill: #f7f3ea"/>
  </g>
  <g id="axes_1">
   <g id="patch_2">
    <path d="M 77.76 298.990321 
L 829.44 298.990321 
L 829.44 87.48 
L 77.76 87.48 
z
" style="fill: #f7f3ea"/>
   </g>
   <g id="matplotlib.axis_1">
    <g id="xtick_1">
     <g id="line2d_1"/>
    </g>
    <g id="xtick_2">
     <g id="line2d_2"/>
    </g>
    <g id="xtick_3">
     <g id="line2d_3"/>
    </g>
    <g id="xtick_4">
     <g id="line2d_4"/>
    </g>
    <g id="xtick_5">
     <g id="line2d_5"/>
    </g>
   </g>
   <g id="matplotlib.axis_2">
    <g id="ytick_1">
     <g id="line2d_6">
      <path d="M 77.76 298.990321 
L 829.44 298.990321 
" clip-path="url(#p6ccb0c0570)" style="fill: none; stroke: #172132; stroke-opacity: 0.1; stroke-width: 0.8; stroke-linecap: square"/>
     </g>
     <g id="line2d_7"/>
     <g id="text_1">
      <text style="fill: #172132; font: 11px 'DejaVu Sans'; text-anchor: end" x="70.76" y="303.169462" transform="rotate(-0 70.76 303.169462)">0</text>
     </g>
    </g>
    <g id="ytick_2">
     <g id="line2d_8">
      <path d="M 77.76 262.205917 
L 829.44 262.205917 
" clip-path="url(#p6ccb0c0570)" style="fill: none; stroke: #172132; stroke-opacity: 0.1; stroke-width: 0.8; stroke-linecap: square"/>
     </g>
     <g id="line2d_9"/>
     <g id="text_2">
      <text style="fill: #172132; font: 11px 'DejaVu Sans'; text-anchor: end" x="70.76" y="266.385058" transform="rotate(-0 70.76 266.385058)">200</text>
     </g>
    </g>
    <g id="ytick_3">
     <g id="line2d_10">
      <path d="M 77.76 225.421514 
L 829.44 225.421514 
" clip-path="url(#p6ccb0c0570)" style="fill: none; stroke: #172132; stroke-opacity: 0.1; stroke-width: 0.8; stroke-linecap: square"/>
     </g>
     <g id="line2d_11"/>
     <g id="text_3">
      <text style="fill: #172132; font: 11px 'DejaVu Sans'; text-anchor: end" x="70.76" y="229.600654" transform="rotate(-0 70.76 229.600654)">400</text>
     </g>
    </g>
    <g id="ytick_4">
     <g id="line2d_12">
      <path d="M 77.76 188.63711 
L 829.44 188.63711 
" clip-path="url(#p6ccb0c0570)" style="fill: none; stroke: #172132; stroke-opacity: 0.1; stroke-width: 0.8; stroke-linecap: square"/>
     </g>
     <g id="line2d_13"/>
     <g id="text_4">
      <text style="fill: #172132; font: 11px 'DejaVu Sans'; text-anchor: end" x="70.76" y="192.816251" transform="rotate(-0 70.76 192.816251)">600</text>
     </g>
    </g>
    <g id="ytick_5">
     <g id="line2d_14">
      <path d="M 77.76 151.852706 
L 829.44 151.852706 
" clip-path="url(#p6ccb0c0570)" style="fill: none; stroke: #172132; stroke-opacity: 0.1; stroke-width: 0.8; stroke-linecap: square"/>
     </g>
     <g id="line2d_15"/>
     <g id="text_5">
      <text style="fill: #172132; font: 11px 'DejaVu Sans'; text-anchor: end" x="70.76" y="156.031847" transform="rotate(-0 70.76 156.031847)">800</text>
     </g>
    </g>
    <g id="ytick_6">
     <g id="line2d_16">
      <path d="M 77.76 115.068303 
L 829.44 115.068303 
" clip-path="url(#p6ccb0c0570)" style="fill: none; stroke: #172132; stroke-opacity: 0.1; stroke-width: 0.8; stroke-linecap: square"/>
     </g>
     <g id="line2d_17"/>
     <g id="text_6">
      <text style="fill: #172132; font: 11px 'DejaVu Sans'; text-anchor: end" x="70.76" y="119.247443" transform="rotate(-0 70.76 119.247443)">1000</text>
     </g>
    </g>
    <g id="text_7">
     <text style="fill: #6f746f; font: 11px 'DejaVu Sans'; text-anchor: middle" x="36.477344" y="193.235161" transform="rotate(-90 36.477344 193.235161)">Million users</text>
    </g>
   </g>
   <g id="patch_3">
    <path d="M 111.927273 298.990321 
L 198.46447 298.990321 
L 198.46447 141.858384 
L 111.927273 141.858384 
z
" clip-path="url(#p6ccb0c0570)" style="fill: #4b718a"/>
   </g>
   <g id="patch_4">
    <path d="M 261.129337 298.990321 
L 347.666534 298.990321 
L 347.666534 132.792868 
L 261.129337 132.792868 
z
" clip-path="url(#p6ccb0c0570)" style="fill: #4b718a"/>
   </g>
   <g id="patch_5">
    <path d="M 410.331401 298.990321 
L 496.868599 298.990321 
L 496.868599 131.356437 
L 410.331401 131.356437 
z
" clip-path="url(#p6ccb0c0570)" style="fill: #4b718a"/>
   </g>
   <g id="patch_6">
    <path d="M 559.533466 298.990321 
L 646.070663 298.990321 
L 646.070663 123.554465 
L 559.533466 123.554465 
z
" clip-path="url(#p6ccb0c0570)" style="fill: #4b718a"/>
   </g>
   <g id="patch_7">
    <path d="M 708.73553 298.990321 
L 795.272727 298.990321 
L 795.272727 109.751117 
L 708.73553 109.751117 
z
" clip-path="url(#p6ccb0c0570)" style="fill: #4b718a"/>
   </g>
   <g id="text_8">
    <text style="fill: #172132; font: 700 11px 'DejaVu Sans'; text-anchor: middle" x="155.195871" y="137.260333" transform="rotate(-0 155.195871 137.260333)">854.34</text>
   </g>
   <g id="text_9">
    <text style="fill: #172132; font: 700 11px 'DejaVu Sans'; text-anchor: middle" x="304.397936" y="128.194817" transform="rotate(-0 304.397936 128.194817)">903.63</text>
   </g>
   <g id="text_10">
    <text style="fill: #172132; font: 700 11px 'DejaVu Sans'; text-anchor: middle" x="453.6" y="126.758386" transform="rotate(-0 453.6 126.758386)">911.44</text>
   </g>
   <g id="text_11">
    <text style="fill: #172132; font: 700 11px 'DejaVu Sans'; text-anchor: middle" x="602.802064" y="118.956414" transform="rotate(-0 602.802064 118.956414)">953.86</text>
   </g>
   <g id="text_12">
    <text style="fill: #172132; font: 700 11px 'DejaVu Sans'; text-anchor: middle" x="752.004129" y="105.153067" transform="rotate(-0 752.004129 105.153067)">1,028.91</text>
   </g>
   <g id="text_13">
    <text style="fill: #6f746f; font: 10.5px 'DejaVu Sans'; text-anchor: start" x="77.76" y="83.249794" transform="rotate(-0 77.76 83.249794)">China online-payment users and share of internet users, Dec. 2020–Dec. 2024</text>
   </g>
   <g id="text_14">
    <text style="fill: #172132; font: 700 20px 'DejaVu Sans'; text-anchor: start" x="77.76" y="63.48" transform="rotate(-0 77.76 63.48)">Online payment became mass infrastructure</text>
   </g>
  </g>
  <g id="axes_2">
   <g id="patch_8">
    <path d="M 77.76 422.82 
L 829.44 422.82 
L 829.44 326.678945 
L 77.76 326.678945 
z
" style="fill: #f7f3ea"/>
   </g>
   <g id="matplotlib.axis_3">
    <g id="xtick_6">
     <g id="line2d_18"/>
     <g id="text_15">
      <text style="fill: #6f746f; font: 11px 'DejaVu Sans'; text-anchor: middle" x="155.195871" y="438.178281" transform="rotate(-0 155.195871 438.178281)">2020</text>
     </g>
    </g>
    <g id="xtick_7">
     <g id="line2d_19"/>
     <g id="text_16">
      <text style="fill: #6f746f; font: 11px 'DejaVu Sans'; text-anchor: middle" x="304.397936" y="438.178281" transform="rotate(-0 304.397936 438.178281)">2021</text>
     </g>
    </g>
    <g id="xtick_8">
     <g id="line2d_20"/>
     <g id="text_17">
      <text style="fill: #6f746f; font: 11px 'DejaVu Sans'; text-anchor: middle" x="453.6" y="438.178281" transform="rotate(-0 453.6 438.178281)">2022</text>
     </g>
    </g>
    <g id="xtick_9">
     <g id="line2d_21"/>
     <g id="text_18">
      <text style="fill: #6f746f; font: 11px 'DejaVu Sans'; text-anchor: middle" x="602.802064" y="438.178281" transform="rotate(-0 602.802064 438.178281)">2023</text>
     </g>
    </g>
    <g id="xtick_10">
     <g id="line2d_22"/>
     <g id="text_19">
      <text style="fill: #6f746f; font: 11px 'DejaVu Sans'; text-anchor: middle" x="752.004129" y="438.178281" transform="rotate(-0 752.004129 438.178281)">2024</text>
     </g>
    </g>
   </g>
   <g id="matplotlib.axis_4">
    <g id="ytick_7">
     <g id="line2d_23">
      <path d="M 77.76 422.82 
L 829.44 422.82 
" clip-path="url(#p9f18525b3a)" style="fill: none; stroke: #172132; stroke-opacity: 0.1; stroke-width: 0.8; stroke-linecap: square"/>
     </g>
     <g id="line2d_24"/>
     <g id="text_20">
      <text style="fill: #172132; font: 11px 'DejaVu Sans'; text-anchor: end" x="70.76" y="426.999141" transform="rotate(-0 70.76 426.999141)">80</text>
     </g>
    </g>
    <g id="ytick_8">
     <g id="line2d_25">
      <path d="M 77.76 392.77592 
L 829.44 392.77592 
" clip-path="url(#p9f18525b3a)" style="fill: none; stroke: #172132; stroke-opacity: 0.1; stroke-width: 0.8; stroke-linecap: square"/>
     </g>
     <g id="line2d_26"/>
     <g id="text_21">
      <text style="fill: #172132; font: 11px 'DejaVu Sans'; text-anchor: end" x="70.76" y="396.955061" transform="rotate(-0 70.76 396.955061)">85</text>
     </g>
    </g>
    <g id="ytick_9">
     <g id="line2d_27">
      <path d="M 77.76 362.731841 
L 829.44 362.731841 
" clip-path="url(#p9f18525b3a)" style="fill: none; stroke: #172132; stroke-opacity: 0.1; stroke-width: 0.8; stroke-linecap: square"/>
     </g>
     <g id="line2d_28"/>
     <g id="text_22">
      <text style="fill: #172132; font: 11px 'DejaVu Sans'; text-anchor: end" x="70.76" y="366.910981" transform="rotate(-0 70.76 366.910981)">90</text>
     </g>
    </g>
    <g id="ytick_10">
     <g id="line2d_29">
      <path d="M 77.76 332.687761 
L 829.44 332.687761 
" clip-path="url(#p9f18525b3a)" style="fill: none; stroke: #172132; stroke-opacity: 0.1; stroke-width: 0.8; stroke-linecap: square"/>
     </g>
     <g id="line2d_30"/>
     <g id="text_23">
      <text style="fill: #172132; font: 11px 'DejaVu Sans'; text-anchor: end" x="70.76" y="336.866902" transform="rotate(-0 70.76 336.866902)">95</text>
     </g>
    </g>
    <g id="text_24">
     <text style="fill: #6f746f; font: 11px 'DejaVu Sans'; text-anchor: middle" x="50.474844" y="374.749472" transform="rotate(-90 50.474844 374.749472)">Utilisation</text>
    </g>
   </g>
   <g id="PolyCollection_1">
    <defs>
     <path id="ma0d91e29d0" d="M 155.195871 -63.18 
L 155.195871 -101.636422 
L 304.397936 -108.847001 
L 453.6 -95.627606 
L 602.802064 -107.044356 
L 752.004129 -140.092844 
L 752.004129 -63.18 
L 752.004129 -63.18 
L 602.802064 -63.18 
L 453.6 -63.18 
L 304.397936 -63.18 
L 155.195871 -63.18 
z
" style="stroke: #c9583e; stroke-opacity: 0.1"/>
    </defs>
    <g clip-path="url(#p9f18525b3a)">
     <use xlink:href="#ma0d91e29d0" x="0" y="486" style="fill: #c9583e; fill-opacity: 0.1; stroke: #c9583e; stroke-opacity: 0.1"/>
    </g>
   </g>
   <g id="line2d_31">
    <path d="M 155.195871 384.363578 
L 304.397936 377.152999 
L 453.6 390.372394 
L 602.802064 378.955644 
L 752.004129 345.907156 
" clip-path="url(#p9f18525b3a)" style="fill: none; stroke: #c9583e; stroke-width: 2.6; stroke-linecap: square"/>
    <defs>
     <path id="m6ea9fcade6" d="M 0 3 
C 0.795609 3 1.55874 2.683901 2.12132 2.12132 
C 2.683901 1.55874 3 0.795609 3 0 
C 3 -0.795609 2.683901 -1.55874 2.12132 -2.12132 
C 1.55874 -2.683901 0.795609 -3 0 -3 
C -0.795609 -3 -1.55874 -2.683901 -2.12132 -2.12132 
C -2.683901 -1.55874 -3 -0.795609 -3 0 
C -3 0.795609 -2.683901 1.55874 -2.12132 2.12132 
C -1.55874 2.683901 -0.795609 3 0 3 
z
" style="stroke: #c9583e"/>
    </defs>
    <g clip-path="url(#p9f18525b3a)">
     <use xlink:href="#m6ea9fcade6" x="155.195871" y="384.363578" style="fill: #c9583e; stroke: #c9583e"/>
     <use xlink:href="#m6ea9fcade6" x="304.397936" y="377.152999" style="fill: #c9583e; stroke: #c9583e"/>
     <use xlink:href="#m6ea9fcade6" x="453.6" y="390.372394" style="fill: #c9583e; stroke: #c9583e"/>
     <use xlink:href="#m6ea9fcade6" x="602.802064" y="378.955644" style="fill: #c9583e; stroke: #c9583e"/>
     <use xlink:href="#m6ea9fcade6" x="752.004129" y="345.907156" style="fill: #c9583e; stroke: #c9583e"/>
    </g>
   </g>
   <g id="text_25">
    <text style="fill: #c9583e; font: 700 11px 'DejaVu Sans'; text-anchor: middle" x="155.195871" y="379.856966" transform="rotate(-0 155.195871 379.856966)">86.4%</text>
   </g>
   <g id="text_26">
    <text style="fill: #c9583e; font: 700 11px 'DejaVu Sans'; text-anchor: middle" x="304.397936" y="372.646387" transform="rotate(-0 304.397936 372.646387)">87.6%</text>
   </g>
   <g id="text_27">
    <text style="fill: #c9583e; font: 700 11px 'DejaVu Sans'; text-anchor: middle" x="453.6" y="385.865782" transform="rotate(-0 453.6 385.865782)">85.4%</text>
   </g>
   <g id="text_28">
    <text style="fill: #c9583e; font: 700 11px 'DejaVu Sans'; text-anchor: middle" x="602.802064" y="374.449032" transform="rotate(-0 602.802064 374.449032)">87.3%</text>
   </g>
   <g id="text_29">
    <text style="fill: #c9583e; font: 700 11px 'DejaVu Sans'; text-anchor: middle" x="752.004129" y="341.400544" transform="rotate(-0 752.004129 341.400544)">92.8%</text>
   </g>
  </g>
  <g id="text_30">
   <text style="fill: #6f746f; font: 9px 'DejaVu Sans'; text-anchor: end" x="829.44" y="473.85" transform="rotate(-0 829.44 473.85)">Source: CNNIC, 55th Statistical Report (Figure 26)</text>
  </g>
 </g>
 <defs>
  <clipPath id="p6ccb0c0570">
   <rect x="77.76" y="87.48" width="751.68" height="211.510321"/>
  </clipPath>
  <clipPath id="p9f18525b3a">
   <rect x="77.76" y="326.678945" width="751.68" height="96.141055"/>
  </clipPath>
 </defs>
</svg>
