<?xml version="1.0" encoding="utf-8" standalone="no"?>
<!DOCTYPE svg PUBLIC "-//W3C//DTD SVG 1.1//EN"
  "http://www.w3.org/Graphics/SVG/1.1/DTD/svg11.dtd">
<svg xmlns:xlink="http://www.w3.org/1999/xlink" width="864pt" height="486pt" viewBox="0 0 864 486" xmlns="http://www.w3.org/2000/svg" version="1.1">
 <metadata>
  <rdf:RDF xmlns:dc="http://purl.org/dc/elements/1.1/" xmlns:cc="http://creativecommons.org/ns#" xmlns:rdf="http://www.w3.org/1999/02/22-rdf-syntax-ns#">
   <cc:Work>
    <dc:type rdf:resource="http://purl.org/dc/dcmitype/StillImage"/>
    <dc:format>image/svg+xml</dc:format>
    <dc:creator>
     <cc:Agent>
      <dc:title>summer-school/scripts/make_figures.py</dc:title>
     </cc:Agent>
    </dc:creator>
   </cc:Work>
  </rdf:RDF>
 </metadata>
 <defs>
  <style type="text/css">*{stroke-linejoin: round; stroke-linecap: butt}</style>
 </defs>
 <g id="figure_1">
  <g id="patch_1">
   <path d="M 0 486 
L 864 486 
L 864 0 
L 0 0 
z
" style="fill: #f7f3ea"/>
  </g>
  <g id="axes_1">
   <g id="patch_2">
    <path d="M 95.04 413.1 
L 820.8 413.1 
L 820.8 106.92 
L 95.04 106.92 
z
" style="fill: #f7f3ea"/>
   </g>
   <g id="matplotlib.axis_1">
    <g id="xtick_1">
     <g id="line2d_1"/>
     <g id="text_1">
      <text style="fill: #6f746f; font: 11px 'DejaVu Sans'; text-anchor: middle" x="119.642034" y="428.458281" transform="rotate(-0 119.642034 428.458281)">2014</text>
     </g>
    </g>
    <g id="xtick_2">
     <g id="line2d_2"/>
     <g id="text_2">
      <text style="fill: #6f746f; font: 11px 'DejaVu Sans'; text-anchor: middle" x="181.147119" y="428.458281" transform="rotate(-0 181.147119 428.458281)">2015</text>
     </g>
    </g>
    <g id="xtick_3">
     <g id="line2d_3"/>
     <g id="text_3">
      <text style="fill: #6f746f; font: 11px 'DejaVu Sans'; text-anchor: middle" x="242.652203" y="428.458281" transform="rotate(-0 242.652203 428.458281)">2016</text>
     </g>
    </g>
    <g id="xtick_4">
     <g id="line2d_4"/>
     <g id="text_4">
      <text style="fill: #6f746f; font: 11px 'DejaVu Sans'; text-anchor: middle" x="304.157288" y="428.458281" transform="rotate(-0 304.157288 428.458281)">2017</text>
     </g>
    </g>
    <g id="xtick_5">
     <g id="line2d_5"/>
     <g id="text_5">
      <text style="fill: #6f746f; font: 11px 'DejaVu Sans'; text-anchor: middle" x="365.662373" y="428.458281" transform="rotate(-0 365.662373 428.458281)">2018</text>
     </g>
    </g>
    <g id="xtick_6">
     <g id="line2d_6"/>
     <g id="text_6">
      <text style="fill: #6f746f; font: 11px 'DejaVu Sans'; text-anchor: middle" x="427.167458" y="428.458281" transform="rotate(-0 427.167458 428.458281)">2019</text>
     </g>
    </g>
    <g id="xtick_7">
     <g id="line2d_7"/>
     <g id="text_7">
      <text style="fill: #6f746f; font: 11px 'DejaVu Sans'; text-anchor: middle" x="488.672542" y="428.458281" transform="rotate(-0 488.672542 428.458281)">2020</text>
     </g>
    </g>
    <g id="xtick_8">
     <g id="line2d_8"/>
     <g id="text_8">
      <text style="fill: #6f746f; font: 11px 'DejaVu Sans'; text-anchor: middle" x="550.177627" y="428.458281" transform="rotate(-0 550.177627 428.458281)">2021</text>
     </g>
    </g>
    <g id="xtick_9">
     <g id="line2d_9"/>
     <g id="text_9">
      <text style="fill: #6f746f; font: 11px 'DejaVu Sans'; text-anchor: middle" x="611.682712" y="428.458281" transform="rotate(-0 611.682712 428.458281)">2022</text>
     </g>
    </g>
    <g id="xtick_10">
     <g id="line2d_10"/>
     <g id="text_10">
      <text style="fill: #6f746f; font: 11px 'DejaVu Sans'; text-anchor: middle" x="673.187797" y="428.458281" transform="rotate(-0 673.187797 428.458281)">2023</text>
     </g>
    </g>
    <g id="xtick_11">
     <g id="line2d_11"/>
     <g id="text_11">
      <text style="fill: #6f746f; font: 11px 'DejaVu Sans'; text-anchor: middle" x="734.692881" y="428.458281" transform="rotate(-0 734.692881 428.458281)">2024</text>
     </g>
    </g>
    <g id="xtick_12">
     <g id="line2d_12"/>
     <g id="text_12">
      <text style="fill: #6f746f; font: 11px 'DejaVu Sans'; text-anchor: middle" x="796.197966" y="428.458281" transform="rotate(-0 796.197966 428.458281)">2025</text>
     </g>
    </g>
   </g>
   <g id="matplotlib.axis_2">
    <g id="ytick_1">
     <g id="line2d_13">
      <path d="M 95.04 413.1 
L 820.8 413.1 
" clip-path="url(#p861ae7c065)" style="fill: none; stroke: #172132; stroke-opacity: 0.1; stroke-width: 0.8; stroke-linecap: square"/>
     </g>
     <g id="line2d_14"/>
     <g id="text_13">
      <text style="fill: #172132; font: 11px 'DejaVu Sans'; text-anchor: end" x="88.04" y="417.279141" transform="rotate(-0 88.04 417.279141)">0</text>
     </g>
    </g>
    <g id="ytick_2">
     <g id="line2d_15">
      <path d="M 95.04 347.955319 
L 820.8 347.955319 
" clip-path="url(#p861ae7c065)" style="fill: none; stroke: #172132; stroke-opacity: 0.1; stroke-width: 0.8; stroke-linecap: square"/>
     </g>
     <g id="line2d_16"/>
     <g id="text_14">
      <text style="fill: #172132; font: 11px 'DejaVu Sans'; text-anchor: end" x="88.04" y="352.13446" transform="rotate(-0 88.04 352.13446)">50</text>
     </g>
    </g>
    <g id="ytick_3">
     <g id="line2d_17">
      <path d="M 95.04 282.810638 
L 820.8 282.810638 
" clip-path="url(#p861ae7c065)" style="fill: none; stroke: #172132; stroke-opacity: 0.1; stroke-width: 0.8; stroke-linecap: square"/>
     </g>
     <g id="line2d_18"/>
     <g id="text_15">
      <text style="fill: #172132; font: 11px 'DejaVu Sans'; text-anchor: end" x="88.04" y="286.989779" transform="rotate(-0 88.04 286.989779)">100</text>
     </g>
    </g>
    <g id="ytick_4">
     <g id="line2d_19">
      <path d="M 95.04 217.665957 
L 820.8 217.665957 
" clip-path="url(#p861ae7c065)" style="fill: none; stroke: #172132; stroke-opacity: 0.1; stroke-width: 0.8; stroke-linecap: square"/>
     </g>
     <g id="line2d_20"/>
     <g id="text_16">
      <text style="fill: #172132; font: 11px 'DejaVu Sans'; text-anchor: end" x="88.04" y="221.845098" transform="rotate(-0 88.04 221.845098)">150</text>
     </g>
    </g>
    <g id="ytick_5">
     <g id="line2d_21">
      <path d="M 95.04 152.521277 
L 820.8 152.521277 
" clip-path="url(#p861ae7c065)" style="fill: none; stroke: #172132; stroke-opacity: 0.1; stroke-width: 0.8; stroke-linecap: square"/>
     </g>
     <g id="line2d_22"/>
     <g id="text_17">
      <text style="fill: #172132; font: 11px 'DejaVu Sans'; text-anchor: end" x="88.04" y="156.700417" transform="rotate(-0 88.04 156.700417)">200</text>
     </g>
    </g>
    <g id="text_18">
     <text style="fill: #6f746f; font: 11px 'DejaVu Sans'; text-anchor: middle" x="60.756094" y="260.01" transform="rotate(-90 60.756094 260.01)">RMB billion, average daily turnover</text>
    </g>
   </g>
   <g id="PolyCollection_1">
    <defs>
     <path id="m3d409d1368" d="M 119.642034 -72.9 
L 119.642034 -80.196204 
L 181.147119 -81.238519 
L 242.652203 -79.153889 
L 304.157288 -85.407779 
L 365.662373 -99.47903 
L 427.167458 -127.230664 
L 488.672542 -191.854187 
L 550.177627 -229.377523 
L 611.682712 -203.710519 
L 673.187797 -214.003379 
L 734.692881 -268.464332 
L 796.197966 -349.634604 
L 796.197966 -72.9 
L 796.197966 -72.9 
L 734.692881 -72.9 
L 673.187797 -72.9 
L 611.682712 -72.9 
L 550.177627 -72.9 
L 488.672542 -72.9 
L 427.167458 -72.9 
L 365.662373 -72.9 
L 304.157288 -72.9 
L 242.652203 -72.9 
L 181.147119 -72.9 
L 119.642034 -72.9 
z
" style="stroke: #4b718a; stroke-opacity: 0.12"/>
    </defs>
    <g clip-path="url(#p861ae7c065)">
     <use xlink:href="#m3d409d1368" x="0" y="486" style="fill: #4b718a; fill-opacity: 0.12; stroke: #4b718a; stroke-opacity: 0.12"/>
    </g>
   </g>
   <g id="line2d_23">
    <path d="M 119.642034 405.803796 
L 181.147119 404.761481 
L 242.652203 406.846111 
L 304.157288 400.592221 
L 365.662373 386.52097 
L 427.167458 358.769336 
L 488.672542 294.145813 
L 550.177627 256.622477 
L 611.682712 282.289481 
L 673.187797 271.996621 
L 734.692881 217.535668 
L 796.197966 136.365396 
" clip-path="url(#p861ae7c065)" style="fill: none; stroke: #4b718a; stroke-width: 3; stroke-linecap: square"/>
    <defs>
     <path id="m4a3d515f70" d="M 0 3 
C 0.795609 3 1.55874 2.683901 2.12132 2.12132 
C 2.683901 1.55874 3 0.795609 3 0 
C 3 -0.795609 2.683901 -1.55874 2.12132 -2.12132 
C 1.55874 -2.683901 0.795609 -3 0 -3 
C -0.795609 -3 -1.55874 -2.683901 -2.12132 -2.12132 
C -2.683901 -1.55874 -3 -0.795609 -3 0 
C -3 0.795609 -2.683901 1.55874 -2.12132 2.12132 
C -1.55874 2.683901 -0.795609 3 0 3 
z
" style="stroke: #4b718a"/>
    </defs>
    <g clip-path="url(#p861ae7c065)">
     <use xlink:href="#m4a3d515f70" x="119.642034" y="405.803796" style="fill: #4b718a; stroke: #4b718a"/>
     <use xlink:href="#m4a3d515f70" x="181.147119" y="404.761481" style="fill: #4b718a; stroke: #4b718a"/>
     <use xlink:href="#m4a3d515f70" x="242.652203" y="406.846111" style="fill: #4b718a; stroke: #4b718a"/>
     <use xlink:href="#m4a3d515f70" x="304.157288" y="400.592221" style="fill: #4b718a; stroke: #4b718a"/>
     <use xlink:href="#m4a3d515f70" x="365.662373" y="386.52097" style="fill: #4b718a; stroke: #4b718a"/>
     <use xlink:href="#m4a3d515f70" x="427.167458" y="358.769336" style="fill: #4b718a; stroke: #4b718a"/>
     <use xlink:href="#m4a3d515f70" x="488.672542" y="294.145813" style="fill: #4b718a; stroke: #4b718a"/>
     <use xlink:href="#m4a3d515f70" x="550.177627" y="256.622477" style="fill: #4b718a; stroke: #4b718a"/>
     <use xlink:href="#m4a3d515f70" x="611.682712" y="282.289481" style="fill: #4b718a; stroke: #4b718a"/>
     <use xlink:href="#m4a3d515f70" x="673.187797" y="271.996621" style="fill: #4b718a; stroke: #4b718a"/>
     <use xlink:href="#m4a3d515f70" x="734.692881" y="217.535668" style="fill: #4b718a; stroke: #4b718a"/>
     <use xlink:href="#m4a3d515f70" x="796.197966" y="136.365396" style="fill: #4b718a; stroke: #4b718a"/>
    </g>
   </g>
   <g id="text_19">
    <text style="fill: #6f746f; font: 10.5px 'DejaVu Sans'; text-anchor: start" x="95.04" y="100.7964" transform="rotate(-0 95.04 100.7964)">Average daily turnover; northbound RMB series only, 2014–2025</text>
   </g>
   <g id="patch_3">
    <path d="M 170.369355 347.033337 
Q 145.66053 375.659902 120.951705 404.286468 
" style="fill: none; stroke: #6f746f; stroke-linecap: round"/>
   </g>
   <g id="text_20">
    <text style="fill: #6f746f; font: 10px 'DejaVu Sans'; text-anchor: start" x="131.943051" y="341.440851" transform="rotate(-0 131.943051 341.440851)">Shanghai Connect</text>
   </g>
   <g id="patch_4">
    <path d="M 291.267206 312.125611 
Q 267.415915 358.596989 243.564625 405.068367 
" style="fill: none; stroke: #6f746f; stroke-linecap: round"/>
   </g>
   <g id="text_21">
    <text style="fill: #6f746f; font: 10px 'DejaVu Sans'; text-anchor: start" x="248.802712" y="306.262723" transform="rotate(-0 248.802712 306.262723)">Shenzhen Connect</text>
   </g>
   <g id="text_22">
    <text style="fill: #c9583e; font: 700 12px 'DejaVu Sans'; text-anchor: middle" x="796.197966" y="123.33646" transform="rotate(-0 796.197966 123.33646)">212.4</text>
   </g>
   <g id="text_23">
    <text style="fill: #172132; font: 700 20px 'DejaVu Sans'; text-anchor: start" x="95.04" y="82.92" transform="rotate(-0 95.04 82.92)">Northbound Stock Connect turnover scaled sharply</text>
   </g>
  </g>
  <g id="text_24">
   <text style="fill: #6f746f; font: 9px 'DejaVu Sans'; text-anchor: end" x="820.8" y="468.99" transform="rotate(-0 820.8 468.99)">Source: HKEX, Stock Connect 2025 Review (Feb. 2026 data)</text>
  </g>
 </g>
 <defs>
  <clipPath id="p861ae7c065">
   <rect x="95.04" y="106.92" width="725.76" height="306.18"/>
  </clipPath>
 </defs>
</svg>
