<?xml version="1.0" encoding="utf-8" standalone="no"?>
<!DOCTYPE svg PUBLIC "-//W3C//DTD SVG 1.1//EN"
  "http://www.w3.org/Graphics/SVG/1.1/DTD/svg11.dtd">
<svg xmlns:xlink="http://www.w3.org/1999/xlink" width="864pt" height="486pt" viewBox="0 0 864 486" xmlns="http://www.w3.org/2000/svg" version="1.1">
 <metadata>
  <rdf:RDF xmlns:dc="http://purl.org/dc/elements/1.1/" xmlns:cc="http://creativecommons.org/ns#" xmlns:rdf="http://www.w3.org/1999/02/22-rdf-syntax-ns#">
   <cc:Work>
    <dc:type rdf:resource="http://purl.org/dc/dcmitype/StillImage"/>
    <dc:format>image/svg+xml</dc:format>
    <dc:creator>
     <cc:Agent>
      <dc:title>summer-school/scripts/make_figures.py</dc:title>
     </cc:Agent>
    </dc:creator>
   </cc:Work>
  </rdf:RDF>
 </metadata>
 <defs>
  <style type="text/css">*{stroke-linejoin: round; stroke-linecap: butt}</style>
 </defs>
 <g id="figure_1">
  <g id="patch_1">
   <path d="M 0 486 
L 864 486 
L 864 0 
L 0 0 
z
" style="fill: #f7f3ea"/>
  </g>
  <g id="axes_1">
   <g id="patch_2">
    <path d="M 69.12 349.92 
L 829.44 349.92 
L 829.44 116.64 
L 69.12 116.64 
z
" style="fill: #f7f3ea"/>
   </g>
   <g id="matplotlib.axis_1">
    <g id="xtick_1">
     <g id="line2d_1">
      <path d="M 69.12 349.92 
L 69.12 116.64 
" clip-path="url(#p5c8621c8c1)" style="fill: none; stroke: #172132; stroke-opacity: 0.1; stroke-width: 0.8; stroke-linecap: square"/>
     </g>
     <g id="line2d_2"/>
     <g id="text_1">
      <text style="fill: #6f746f; font: 11px 'DejaVu Sans'; text-anchor: middle" x="69.12" y="365.278281" transform="rotate(-0 69.12 365.278281)">0%</text>
     </g>
    </g>
    <g id="xtick_2">
     <g id="line2d_3">
      <path d="M 259.2 349.92 
L 259.2 116.64 
" clip-path="url(#p5c8621c8c1)" style="fill: none; stroke: #172132; stroke-opacity: 0.1; stroke-width: 0.8; stroke-linecap: square"/>
     </g>
     <g id="line2d_4"/>
     <g id="text_2">
      <text style="fill: #6f746f; font: 11px 'DejaVu Sans'; text-anchor: middle" x="259.2" y="365.278281" transform="rotate(-0 259.2 365.278281)">25%</text>
     </g>
    </g>
    <g id="xtick_3">
     <g id="line2d_5">
      <path d="M 449.28 349.92 
L 449.28 116.64 
" clip-path="url(#p5c8621c8c1)" style="fill: none; stroke: #172132; stroke-opacity: 0.1; stroke-width: 0.8; stroke-linecap: square"/>
     </g>
     <g id="line2d_6"/>
     <g id="text_3">
      <text style="fill: #6f746f; font: 11px 'DejaVu Sans'; text-anchor: middle" x="449.28" y="365.278281" transform="rotate(-0 449.28 365.278281)">50%</text>
     </g>
    </g>
    <g id="xtick_4">
     <g id="line2d_7">
      <path d="M 639.36 349.92 
L 639.36 116.64 
" clip-path="url(#p5c8621c8c1)" style="fill: none; stroke: #172132; stroke-opacity: 0.1; stroke-width: 0.8; stroke-linecap: square"/>
     </g>
     <g id="line2d_8"/>
     <g id="text_4">
      <text style="fill: #6f746f; font: 11px 'DejaVu Sans'; text-anchor: middle" x="639.36" y="365.278281" transform="rotate(-0 639.36 365.278281)">75%</text>
     </g>
    </g>
    <g id="xtick_5">
     <g id="line2d_9">
      <path d="M 829.44 349.92 
L 829.44 116.64 
" clip-path="url(#p5c8621c8c1)" style="fill: none; stroke: #172132; stroke-opacity: 0.1; stroke-width: 0.8; stroke-linecap: square"/>
     </g>
     <g id="line2d_10"/>
     <g id="text_5">
      <text style="fill: #6f746f; font: 11px 'DejaVu Sans'; text-anchor: middle" x="829.44" y="365.278281" transform="rotate(-0 829.44 365.278281)">100%</text>
     </g>
    </g>
   </g>
   <g id="matplotlib.axis_2"/>
   <g id="patch_3">
    <path d="M 69.12 276.048 
L 530.63424 276.048 
L 530.63424 190.512 
L 69.12 190.512 
z
" clip-path="url(#p5c8621c8c1)" style="fill: #4b718a"/>
   </g>
   <g id="patch_4">
    <path d="M 530.63424 276.048 
L 694.10304 276.048 
L 694.10304 190.512 
L 530.63424 190.512 
z
" clip-path="url(#p5c8621c8c1)" style="fill: #c9583e"/>
   </g>
   <g id="patch_5">
    <path d="M 694.10304 276.048 
L 752.64768 276.048 
L 752.64768 190.512 
L 694.10304 190.512 
z
" clip-path="url(#p5c8621c8c1)" style="fill: #c59a45"/>
   </g>
   <g id="patch_6">
    <path d="M 752.64768 276.048 
L 773.93664 276.048 
L 773.93664 190.512 
L 752.64768 190.512 
z
" clip-path="url(#p5c8621c8c1)" style="fill: #172132"/>
   </g>
   <g id="patch_7">
    <path d="M 773.93664 276.048 
L 829.44 276.048 
L 829.44 190.512 
L 773.93664 190.512 
z
" clip-path="url(#p5c8621c8c1)" style="fill: #6f746f"/>
   </g>
   <g id="text_6">
    <text style="fill: #f7f3ea; font: 700 11px 'DejaVu Sans'; text-anchor: middle" x="299.87712" y="236.315312" transform="rotate(-0 299.87712 236.315312)">60.7%</text>
   </g>
   <g id="text_7">
    <text style="fill: #f7f3ea; font: 700 11px 'DejaVu Sans'; text-anchor: middle" x="612.36864" y="236.315312" transform="rotate(-0 612.36864 236.315312)">21.5%</text>
   </g>
   <g id="text_8">
    <text style="fill: #172132; font: 700 11px 'DejaVu Sans'; text-anchor: middle" x="723.37536" y="236.315312" transform="rotate(-0 723.37536 236.315312)">7.7%</text>
   </g>
   <g id="patch_8">
    <path d="M 763.29216 147.077706 
Q 763.29216 166.628761 763.29216 186.179817 
" style="fill: none; stroke: #6f746f; stroke-width: 0.9; stroke-linecap: round"/>
   </g>
   <g id="text_9">
    <text style="fill: #172132; font: 700 10.5px 'DejaVu Sans'; text-anchor: middle" x="763.29216" y="140.894728" transform="rotate(-0 763.29216 140.894728)">2.8%</text>
   </g>
   <g id="text_10">
    <text style="fill: #f7f3ea; font: 700 11px 'DejaVu Sans'; text-anchor: middle" x="801.68832" y="236.315312" transform="rotate(-0 801.68832 236.315312)">7.3%</text>
   </g>
   <g id="text_11">
    <text style="fill: #6f746f; font: 10.5px 'DejaVu Sans'; text-anchor: start" x="69.12" y="111.9744" transform="rotate(-0 69.12 111.9744)">Share of total social financing stock at end-2025; total stock RMB 442.12tn</text>
   </g>
   <g id="text_12">
    <text style="fill: #172132; font: 700 20px 'DejaVu Sans'; text-anchor: start" x="69.12" y="92.64" transform="rotate(-0 69.12 92.64)">Loans remain the largest component of TSF</text>
   </g>
   <g id="legend_1">
    <g id="patch_9">
     <path d="M 258.085469 422.505637 
L 270.085469 422.505637 
L 270.085469 415.505637 
L 258.085469 415.505637 
z
" style="fill: #4b718a"/>
    </g>
    <g id="text_13">
     <text style="fill: #172132; font: 10px 'DejaVu Sans'; text-anchor: start" x="278.085469" y="422.505637" transform="rotate(-0 278.085469 422.505637)">RMB loans to real economy</text>
    </g>
    <g id="patch_10">
     <path d="M 258.085469 437.183763 
L 270.085469 437.183763 
L 270.085469 430.183763 
L 258.085469 430.183763 
z
" style="fill: #c9583e"/>
    </g>
    <g id="text_14">
     <text style="fill: #172132; font: 10px 'DejaVu Sans'; text-anchor: start" x="278.085469" y="437.183763" transform="rotate(-0 278.085469 437.183763)">Government bonds</text>
    </g>
    <g id="patch_11">
     <path d="M 258.085469 451.861887 
L 270.085469 451.861887 
L 270.085469 444.861887 
L 258.085469 444.861887 
z
" style="fill: #c59a45"/>
    </g>
    <g id="text_15">
     <text style="fill: #172132; font: 10px 'DejaVu Sans'; text-anchor: start" x="278.085469" y="451.861887" transform="rotate(-0 278.085469 451.861887)">Corporate bonds</text>
    </g>
    <g id="patch_12">
     <path d="M 429.677656 422.505637 
L 441.677656 422.505637 
L 441.677656 415.505637 
L 429.677656 415.505637 
z
" style="fill: #172132"/>
    </g>
    <g id="text_16">
     <text style="fill: #172132; font: 10px 'DejaVu Sans'; text-anchor: start" x="449.677656" y="422.505637" transform="rotate(-0 449.677656 422.505637)">Domestic equity of non-financial firms</text>
    </g>
    <g id="patch_13">
     <path d="M 429.677656 437.183763 
L 441.677656 437.183763 
L 441.677656 430.183763 
L 429.677656 430.183763 
z
" style="fill: #6f746f"/>
    </g>
    <g id="text_17">
     <text style="fill: #172132; font: 10px 'DejaVu Sans'; text-anchor: start" x="449.677656" y="437.183763" transform="rotate(-0 449.677656 437.183763)">Other components</text>
    </g>
   </g>
  </g>
  <g id="text_18">
   <text style="fill: #6f746f; font: 9px 'DejaVu Sans'; text-anchor: end" x="829.44" y="468.99" transform="rotate(-0 829.44 468.99)">Source: PBOC, 2025 Financial Statistics (preliminary)</text>
  </g>
 </g>
 <defs>
  <clipPath id="p5c8621c8c1">
   <rect x="69.12" y="116.64" width="760.32" height="233.28"/>
  </clipPath>
 </defs>
</svg>
