<?xml version="1.0" encoding="utf-8" standalone="no"?>
<!DOCTYPE svg PUBLIC "-//W3C//DTD SVG 1.1//EN"
  "http://www.w3.org/Graphics/SVG/1.1/DTD/svg11.dtd">
<svg xmlns:xlink="http://www.w3.org/1999/xlink" width="864pt" height="486pt" viewBox="0 0 864 486" xmlns="http://www.w3.org/2000/svg" version="1.1">
 <metadata>
  <rdf:RDF xmlns:dc="http://purl.org/dc/elements/1.1/" xmlns:cc="http://creativecommons.org/ns#" xmlns:rdf="http://www.w3.org/1999/02/22-rdf-syntax-ns#">
   <cc:Work>
    <dc:type rdf:resource="http://purl.org/dc/dcmitype/StillImage"/>
    <dc:format>image/svg+xml</dc:format>
    <dc:creator>
     <cc:Agent>
      <dc:title>make_lecture1_figures.py</dc:title>
     </cc:Agent>
    </dc:creator>
   </cc:Work>
  </rdf:RDF>
 </metadata>
 <defs>
  <style type="text/css">*{stroke-linejoin: round; stroke-linecap: butt}</style>
 </defs>
 <g id="figure_1">
  <g id="patch_1">
   <path d="M 0 486 
L 864 486 
L 864 0 
L 0 0 
z
" style="fill: #f7f3ea"/>
  </g>
  <g id="axes_1">
   <g id="patch_2">
    <path d="M 69.12 427.68 
L 673.92 427.68 
L 673.92 43.74 
L 69.12 43.74 
z
" style="fill: #f7f3ea"/>
   </g>
   <g id="matplotlib.axis_1">
    <g id="xtick_1">
     <g id="line2d_1"/>
     <g id="text_1">
      <text style="fill: #6f746f; font: 11px 'Arial', 'Helvetica Neue', 'DejaVu Sans'; text-anchor: middle" x="69.12" y="442.553594" transform="rotate(-0 69.12 442.553594)">2002</text>
     </g>
    </g>
    <g id="xtick_2">
     <g id="line2d_2"/>
     <g id="text_2">
      <text style="fill: #6f746f; font: 11px 'Arial', 'Helvetica Neue', 'DejaVu Sans'; text-anchor: middle" x="146.001356" y="442.553594" transform="rotate(-0 146.001356 442.553594)">2005</text>
     </g>
    </g>
    <g id="xtick_3">
     <g id="line2d_3"/>
     <g id="text_3">
      <text style="fill: #6f746f; font: 11px 'Arial', 'Helvetica Neue', 'DejaVu Sans'; text-anchor: middle" x="222.882712" y="442.553594" transform="rotate(-0 222.882712 442.553594)">2008</text>
     </g>
    </g>
    <g id="xtick_4">
     <g id="line2d_4"/>
     <g id="text_4">
      <text style="fill: #6f746f; font: 11px 'Arial', 'Helvetica Neue', 'DejaVu Sans'; text-anchor: middle" x="299.764068" y="442.553594" transform="rotate(-0 299.764068 442.553594)">2011</text>
     </g>
    </g>
    <g id="xtick_5">
     <g id="line2d_5"/>
     <g id="text_5">
      <text style="fill: #6f746f; font: 11px 'Arial', 'Helvetica Neue', 'DejaVu Sans'; text-anchor: middle" x="376.645424" y="442.553594" transform="rotate(-0 376.645424 442.553594)">2014</text>
     </g>
    </g>
    <g id="xtick_6">
     <g id="line2d_6"/>
     <g id="text_6">
      <text style="fill: #6f746f; font: 11px 'Arial', 'Helvetica Neue', 'DejaVu Sans'; text-anchor: middle" x="453.52678" y="442.553594" transform="rotate(-0 453.52678 442.553594)">2017</text>
     </g>
    </g>
    <g id="xtick_7">
     <g id="line2d_7"/>
     <g id="text_7">
      <text style="fill: #6f746f; font: 11px 'Arial', 'Helvetica Neue', 'DejaVu Sans'; text-anchor: middle" x="556.035254" y="442.553594" transform="rotate(-0 556.035254 442.553594)">2021</text>
     </g>
    </g>
   </g>
   <g id="matplotlib.axis_2">
    <g id="ytick_1">
     <g id="line2d_8">
      <path d="M 69.12 427.68 
L 673.92 427.68 
" clip-path="url(#p0adddd4cb8)" style="fill: none; stroke: #172132; stroke-opacity: 0.1; stroke-width: 0.8; stroke-linecap: square"/>
     </g>
     <g id="line2d_9"/>
     <g id="text_8">
      <text style="fill: #6f746f; font: 11px 'Arial', 'Helvetica Neue', 'DejaVu Sans'; text-anchor: end" x="62.12" y="431.616797" transform="rotate(-0 62.12 431.616797)">0</text>
     </g>
    </g>
    <g id="ytick_2">
     <g id="line2d_10">
      <path d="M 69.12 363.69 
L 673.92 363.69 
" clip-path="url(#p0adddd4cb8)" style="fill: none; stroke: #172132; stroke-opacity: 0.1; stroke-width: 0.8; stroke-linecap: square"/>
     </g>
     <g id="line2d_11"/>
     <g id="text_9">
      <text style="fill: #6f746f; font: 11px 'Arial', 'Helvetica Neue', 'DejaVu Sans'; text-anchor: end" x="62.12" y="367.626797" transform="rotate(-0 62.12 367.626797)">50</text>
     </g>
    </g>
    <g id="ytick_3">
     <g id="line2d_12">
      <path d="M 69.12 299.7 
L 673.92 299.7 
" clip-path="url(#p0adddd4cb8)" style="fill: none; stroke: #172132; stroke-opacity: 0.1; stroke-width: 0.8; stroke-linecap: square"/>
     </g>
     <g id="line2d_13"/>
     <g id="text_10">
      <text style="fill: #6f746f; font: 11px 'Arial', 'Helvetica Neue', 'DejaVu Sans'; text-anchor: end" x="62.12" y="303.636797" transform="rotate(-0 62.12 303.636797)">100</text>
     </g>
    </g>
    <g id="ytick_4">
     <g id="line2d_14">
      <path d="M 69.12 235.71 
L 673.92 235.71 
" clip-path="url(#p0adddd4cb8)" style="fill: none; stroke: #172132; stroke-opacity: 0.1; stroke-width: 0.8; stroke-linecap: square"/>
     </g>
     <g id="line2d_15"/>
     <g id="text_11">
      <text style="fill: #6f746f; font: 11px 'Arial', 'Helvetica Neue', 'DejaVu Sans'; text-anchor: end" x="62.12" y="239.646797" transform="rotate(-0 62.12 239.646797)">150</text>
     </g>
    </g>
    <g id="ytick_5">
     <g id="line2d_16">
      <path d="M 69.12 171.72 
L 673.92 171.72 
" clip-path="url(#p0adddd4cb8)" style="fill: none; stroke: #172132; stroke-opacity: 0.1; stroke-width: 0.8; stroke-linecap: square"/>
     </g>
     <g id="line2d_17"/>
     <g id="text_12">
      <text style="fill: #6f746f; font: 11px 'Arial', 'Helvetica Neue', 'DejaVu Sans'; text-anchor: end" x="62.12" y="175.656797" transform="rotate(-0 62.12 175.656797)">200</text>
     </g>
    </g>
    <g id="ytick_6">
     <g id="line2d_18">
      <path d="M 69.12 107.73 
L 673.92 107.73 
" clip-path="url(#p0adddd4cb8)" style="fill: none; stroke: #172132; stroke-opacity: 0.1; stroke-width: 0.8; stroke-linecap: square"/>
     </g>
     <g id="line2d_19"/>
     <g id="text_13">
      <text style="fill: #6f746f; font: 11px 'Arial', 'Helvetica Neue', 'DejaVu Sans'; text-anchor: end" x="62.12" y="111.666797" transform="rotate(-0 62.12 111.666797)">250</text>
     </g>
    </g>
    <g id="ytick_7">
     <g id="line2d_20">
      <path d="M 69.12 43.74 
L 673.92 43.74 
" clip-path="url(#p0adddd4cb8)" style="fill: none; stroke: #172132; stroke-opacity: 0.1; stroke-width: 0.8; stroke-linecap: square"/>
     </g>
     <g id="line2d_21"/>
     <g id="text_14">
      <text style="fill: #6f746f; font: 11px 'Arial', 'Helvetica Neue', 'DejaVu Sans'; text-anchor: end" x="62.12" y="47.676797" transform="rotate(-0 62.12 47.676797)">300</text>
     </g>
    </g>
    <g id="text_15">
     <text style="fill: #6f746f; font: 11px 'Arial', 'Helvetica Neue', 'DejaVu Sans'; text-anchor: middle" x="37.582656" y="235.71" transform="rotate(-90 37.582656 235.71)">Percent of GDP</text>
    </g>
   </g>
   <g id="PolyCollection_1">
    <path d="M 69.12 298.54818 
L 69.12 427.68 
L 94.747119 427.68 
L 120.374237 427.68 
L 146.001356 427.68 
L 171.628475 427.68 
L 197.255593 427.68 
L 222.882712 427.68 
L 248.509831 427.68 
L 274.136949 427.68 
L 299.764068 427.68 
L 325.391186 427.68 
L 351.018305 427.68 
L 376.645424 427.68 
L 402.272542 427.68 
L 427.899661 427.68 
L 453.52678 427.68 
L 479.153898 427.68 
L 504.781017 427.68 
L 530.408136 427.68 
L 556.035254 427.68 
L 556.035254 211.90572 
L 556.035254 211.90572 
L 530.408136 209.4741 
L 504.781017 229.311 
L 479.153898 238.14162 
L 453.52678 241.72506 
L 427.899661 243.77274 
L 402.272542 250.68366 
L 376.645424 259.77024 
L 351.018305 266.55318 
L 325.391186 271.92834 
L 299.764068 278.83926 
L 274.136949 275.76774 
L 248.509831 277.68744 
L 222.882712 303.79536 
L 197.255593 303.66738 
L 171.628475 296.88444 
L 146.001356 295.47666 
L 120.374237 292.53312 
L 94.747119 288.56574 
L 69.12 298.54818 
z
" clip-path="url(#p0adddd4cb8)" style="fill: #c59a45; fill-opacity: 0.94"/>
   </g>
   <g id="PolyCollection_2">
    <path d="M 69.12 292.14918 
L 69.12 298.54818 
L 94.747119 288.56574 
L 120.374237 292.53312 
L 146.001356 295.47666 
L 171.628475 296.88444 
L 197.255593 303.66738 
L 222.882712 303.79536 
L 248.509831 277.68744 
L 274.136949 275.76774 
L 299.764068 278.83926 
L 325.391186 271.92834 
L 351.018305 266.55318 
L 376.645424 259.77024 
L 402.272542 250.68366 
L 427.899661 243.77274 
L 453.52678 241.72506 
L 479.153898 238.14162 
L 504.781017 229.311 
L 530.408136 209.4741 
L 556.035254 211.90572 
L 556.035254 191.5569 
L 556.035254 191.5569 
L 530.408136 183.2382 
L 504.781017 200.64348 
L 479.153898 204.86682 
L 453.52678 200.5155 
L 427.899661 203.84298 
L 402.272542 209.73006 
L 376.645424 217.1529 
L 351.018305 225.59958 
L 325.391186 237.88566 
L 299.764068 249.40386 
L 274.136949 247.10022 
L 248.509831 257.97852 
L 222.882712 288.56574 
L 197.255593 289.58958 
L 171.628475 286.39008 
L 146.001356 286.902 
L 120.374237 283.31856 
L 94.747119 280.37502 
L 69.12 292.14918 
z
" clip-path="url(#p0adddd4cb8)" style="fill: #d8d1c3; fill-opacity: 0.94"/>
   </g>
   <g id="PolyCollection_3">
    <path d="M 69.12 284.47038 
L 69.12 292.14918 
L 94.747119 280.37502 
L 120.374237 283.31856 
L 146.001356 286.902 
L 171.628475 286.39008 
L 197.255593 289.58958 
L 222.882712 288.56574 
L 248.509831 257.97852 
L 274.136949 247.10022 
L 299.764068 249.40386 
L 325.391186 237.88566 
L 351.018305 225.59958 
L 376.645424 217.1529 
L 402.272542 209.73006 
L 427.899661 203.84298 
L 453.52678 200.5155 
L 479.153898 204.86682 
L 504.781017 200.64348 
L 530.408136 183.2382 
L 556.035254 191.5569 
L 556.035254 147.65976 
L 556.035254 147.65976 
L 530.408136 138.18924 
L 504.781017 160.8417 
L 479.153898 166.47282 
L 453.52678 161.4816 
L 427.899661 163.4013 
L 402.272542 174.2796 
L 376.645424 186.56568 
L 351.018305 198.46782 
L 325.391186 212.80158 
L 299.764068 228.41514 
L 274.136949 227.77524 
L 248.509831 241.34112 
L 222.882712 276.53562 
L 197.255593 279.47916 
L 171.628475 277.68744 
L 146.001356 279.09522 
L 120.374237 276.0237 
L 94.747119 272.31228 
L 69.12 284.47038 
z
" clip-path="url(#p0adddd4cb8)" style="fill: #4b718a; fill-opacity: 0.94"/>
   </g>
   <g id="PolyCollection_4">
    <path d="M 69.12 272.31228 
L 69.12 284.47038 
L 94.747119 272.31228 
L 120.374237 276.0237 
L 146.001356 279.09522 
L 171.628475 277.68744 
L 197.255593 279.47916 
L 222.882712 276.53562 
L 248.509831 241.34112 
L 274.136949 227.77524 
L 299.764068 228.41514 
L 325.391186 212.80158 
L 351.018305 198.46782 
L 376.645424 186.56568 
L 402.272542 174.2796 
L 427.899661 163.4013 
L 453.52678 161.4816 
L 479.153898 166.47282 
L 504.781017 160.8417 
L 530.408136 138.18924 
L 556.035254 147.65976 
L 556.035254 77.91066 
L 556.035254 77.91066 
L 530.408136 69.9759 
L 504.781017 103.2507 
L 479.153898 113.23314 
L 453.52678 112.46526 
L 427.899661 161.60958 
L 402.272542 172.3599 
L 376.645424 184.64598 
L 351.018305 196.80408 
L 325.391186 211.52178 
L 299.764068 227.3913 
L 274.136949 226.87938 
L 248.509831 240.70122 
L 222.882712 276.27966 
L 197.255593 276.15168 
L 171.628475 274.23198 
L 146.001356 275.25582 
L 120.374237 267.0651 
L 94.747119 259.25832 
L 69.12 272.31228 
z
" clip-path="url(#p0adddd4cb8)" style="fill: #c9583e; fill-opacity: 0.94"/>
   </g>
   <g id="text_16">
    <text style="fill: #172132; font: 700 9.3px 'Arial', 'Helvetica Neue', 'DejaVu Sans'; text-anchor: start" x="565.004746" y="322.203594" transform="rotate(-0 565.004746 322.203594)">Bank loans  168.6%</text>
   </g>
   <g id="text_17">
    <text style="fill: #172132; font: 700 9.3px 'Arial', 'Helvetica Neue', 'DejaVu Sans'; text-anchor: start" x="565.004746" y="204.137685" transform="rotate(-0 565.004746 204.137685)">Off-balance-sheet financing  15.9%</text>
   </g>
   <g id="text_18">
    <text style="fill: #172132; font: 700 9.3px 'Arial', 'Helvetica Neue', 'DejaVu Sans'; text-anchor: start" x="565.004746" y="172.014705" transform="rotate(-0 565.004746 172.014705)">Market-based direct financing  34.3%</text>
   </g>
   <g id="text_19">
    <text style="fill: #c9583e; font: 700 9.3px 'Arial', 'Helvetica Neue', 'DejaVu Sans'; text-anchor: start" x="565.004746" y="115.191585" transform="rotate(-0 565.004746 115.191585)">Other forms of financing  54.5%</text>
   </g>
   <g id="text_20">
    <text style="fill: #172132; font: 700 12.5px 'Arial', 'Helvetica Neue', 'DejaVu Sans'; text-anchor: start" x="69.12" y="28.3824" transform="rotate(-0 69.12 28.3824)">AFRE stock / GDP by financing channel · China</text>
   </g>
   <g id="text_21">
    <text style="fill: #6f746f; font: 9.2px 'Arial', 'Helvetica Neue', 'DejaVu Sans'; text-anchor: start" x="69.12" y="51.4188" transform="rotate(-0 69.12 51.4188)">Published chart values vector-digitized; plotted approximations</text>
   </g>
  </g>
  <g id="text_22">
   <text style="fill: #6f746f; font: 8.8px 'Arial', 'Helvetica Neue', 'DejaVu Sans'; text-anchor: end" x="833.76" y="472.392" transform="rotate(-0 833.76 472.392)">Source: He &amp; Wei (2022), Figure 1 (vector-digitized)</text>
  </g>
 </g>
 <defs>
  <clipPath id="p0adddd4cb8">
   <rect x="69.12" y="43.74" width="604.8" height="383.94"/>
  </clipPath>
 </defs>
</svg>
