<?xml version="1.0" encoding="utf-8" standalone="no"?>
<!DOCTYPE svg PUBLIC "-//W3C//DTD SVG 1.1//EN"
  "http://www.w3.org/Graphics/SVG/1.1/DTD/svg11.dtd">
<svg xmlns:xlink="http://www.w3.org/1999/xlink" width="864pt" height="486pt" viewBox="0 0 864 486" xmlns="http://www.w3.org/2000/svg" version="1.1">
 <metadata>
  <rdf:RDF xmlns:dc="http://purl.org/dc/elements/1.1/" xmlns:cc="http://creativecommons.org/ns#" xmlns:rdf="http://www.w3.org/1999/02/22-rdf-syntax-ns#">
   <cc:Work>
    <dc:type rdf:resource="http://purl.org/dc/dcmitype/StillImage"/>
    <dc:format>image/svg+xml</dc:format>
    <dc:creator>
     <cc:Agent>
      <dc:title>make_lecture1_figures.py</dc:title>
     </cc:Agent>
    </dc:creator>
   </cc:Work>
  </rdf:RDF>
 </metadata>
 <defs>
  <style type="text/css">*{stroke-linejoin: round; stroke-linecap: butt}</style>
 </defs>
 <g id="figure_1">
  <g id="patch_1">
   <path d="M 0 486 
L 864 486 
L 864 0 
L 0 0 
z
" style="fill: #f7f3ea"/>
  </g>
  <g id="axes_1">
   <g id="patch_2">
    <path d="M 69.12 422.82 
L 812.16 422.82 
L 812.16 48.6 
L 69.12 48.6 
z
" style="fill: #f7f3ea"/>
   </g>
   <g id="matplotlib.axis_1">
    <g id="xtick_1">
     <g id="line2d_1"/>
     <g id="text_1">
      <text style="fill: #6f746f; font: 11px 'Arial', 'Helvetica Neue', 'DejaVu Sans'; text-anchor: middle" x="102.894545" y="437.693594" transform="rotate(-0 102.894545 437.693594)">2015</text>
     </g>
    </g>
    <g id="xtick_2">
     <g id="line2d_2"/>
     <g id="text_2">
      <text style="fill: #6f746f; font: 11px 'Arial', 'Helvetica Neue', 'DejaVu Sans'; text-anchor: middle" x="199.393247" y="437.693594" transform="rotate(-0 199.393247 437.693594)">2016</text>
     </g>
    </g>
    <g id="xtick_3">
     <g id="line2d_3"/>
     <g id="text_3">
      <text style="fill: #6f746f; font: 11px 'Arial', 'Helvetica Neue', 'DejaVu Sans'; text-anchor: middle" x="295.891948" y="437.693594" transform="rotate(-0 295.891948 437.693594)">2017</text>
     </g>
    </g>
    <g id="xtick_4">
     <g id="line2d_4"/>
     <g id="text_4">
      <text style="fill: #6f746f; font: 11px 'Arial', 'Helvetica Neue', 'DejaVu Sans'; text-anchor: middle" x="392.390649" y="437.693594" transform="rotate(-0 392.390649 437.693594)">2018</text>
     </g>
    </g>
    <g id="xtick_5">
     <g id="line2d_5"/>
     <g id="text_5">
      <text style="fill: #6f746f; font: 11px 'Arial', 'Helvetica Neue', 'DejaVu Sans'; text-anchor: middle" x="488.889351" y="437.693594" transform="rotate(-0 488.889351 437.693594)">2019</text>
     </g>
    </g>
    <g id="xtick_6">
     <g id="line2d_6"/>
     <g id="text_6">
      <text style="fill: #6f746f; font: 11px 'Arial', 'Helvetica Neue', 'DejaVu Sans'; text-anchor: middle" x="585.388052" y="437.693594" transform="rotate(-0 585.388052 437.693594)">2020</text>
     </g>
    </g>
    <g id="xtick_7">
     <g id="line2d_7"/>
     <g id="text_7">
      <text style="fill: #6f746f; font: 11px 'Arial', 'Helvetica Neue', 'DejaVu Sans'; text-anchor: middle" x="681.886753" y="437.693594" transform="rotate(-0 681.886753 437.693594)">2021</text>
     </g>
    </g>
    <g id="xtick_8">
     <g id="line2d_8"/>
     <g id="text_8">
      <text style="fill: #6f746f; font: 11px 'Arial', 'Helvetica Neue', 'DejaVu Sans'; text-anchor: middle" x="778.385455" y="437.693594" transform="rotate(-0 778.385455 437.693594)">2022</text>
     </g>
    </g>
   </g>
   <g id="matplotlib.axis_2">
    <g id="ytick_1">
     <g id="line2d_9">
      <path d="M 69.12 401.436 
L 812.16 401.436 
" clip-path="url(#p52c5eb8ebc)" style="fill: none; stroke: #172132; stroke-opacity: 0.1; stroke-width: 0.8; stroke-linecap: square"/>
     </g>
     <g id="line2d_10"/>
     <g id="text_9">
      <text style="fill: #6f746f; font: 11px 'Arial', 'Helvetica Neue', 'DejaVu Sans'; text-anchor: end" x="62.12" y="405.372797" transform="rotate(-0 62.12 405.372797)">40</text>
     </g>
    </g>
    <g id="ytick_2">
     <g id="line2d_11">
      <path d="M 69.12 347.976 
L 812.16 347.976 
" clip-path="url(#p52c5eb8ebc)" style="fill: none; stroke: #172132; stroke-opacity: 0.1; stroke-width: 0.8; stroke-linecap: square"/>
     </g>
     <g id="line2d_12"/>
     <g id="text_10">
      <text style="fill: #6f746f; font: 11px 'Arial', 'Helvetica Neue', 'DejaVu Sans'; text-anchor: end" x="62.12" y="351.912797" transform="rotate(-0 62.12 351.912797)">45</text>
     </g>
    </g>
    <g id="ytick_3">
     <g id="line2d_13">
      <path d="M 69.12 294.516 
L 812.16 294.516 
" clip-path="url(#p52c5eb8ebc)" style="fill: none; stroke: #172132; stroke-opacity: 0.1; stroke-width: 0.8; stroke-linecap: square"/>
     </g>
     <g id="line2d_14"/>
     <g id="text_11">
      <text style="fill: #6f746f; font: 11px 'Arial', 'Helvetica Neue', 'DejaVu Sans'; text-anchor: end" x="62.12" y="298.452797" transform="rotate(-0 62.12 298.452797)">50</text>
     </g>
    </g>
    <g id="ytick_4">
     <g id="line2d_15">
      <path d="M 69.12 241.056 
L 812.16 241.056 
" clip-path="url(#p52c5eb8ebc)" style="fill: none; stroke: #172132; stroke-opacity: 0.1; stroke-width: 0.8; stroke-linecap: square"/>
     </g>
     <g id="line2d_16"/>
     <g id="text_12">
      <text style="fill: #6f746f; font: 11px 'Arial', 'Helvetica Neue', 'DejaVu Sans'; text-anchor: end" x="62.12" y="244.992797" transform="rotate(-0 62.12 244.992797)">55</text>
     </g>
    </g>
    <g id="ytick_5">
     <g id="line2d_17">
      <path d="M 69.12 187.596 
L 812.16 187.596 
" clip-path="url(#p52c5eb8ebc)" style="fill: none; stroke: #172132; stroke-opacity: 0.1; stroke-width: 0.8; stroke-linecap: square"/>
     </g>
     <g id="line2d_18"/>
     <g id="text_13">
      <text style="fill: #6f746f; font: 11px 'Arial', 'Helvetica Neue', 'DejaVu Sans'; text-anchor: end" x="62.12" y="191.532797" transform="rotate(-0 62.12 191.532797)">60</text>
     </g>
    </g>
    <g id="ytick_6">
     <g id="line2d_19">
      <path d="M 69.12 134.136 
L 812.16 134.136 
" clip-path="url(#p52c5eb8ebc)" style="fill: none; stroke: #172132; stroke-opacity: 0.1; stroke-width: 0.8; stroke-linecap: square"/>
     </g>
     <g id="line2d_20"/>
     <g id="text_14">
      <text style="fill: #6f746f; font: 11px 'Arial', 'Helvetica Neue', 'DejaVu Sans'; text-anchor: end" x="62.12" y="138.072797" transform="rotate(-0 62.12 138.072797)">65</text>
     </g>
    </g>
    <g id="ytick_7">
     <g id="line2d_21">
      <path d="M 69.12 80.676 
L 812.16 80.676 
" clip-path="url(#p52c5eb8ebc)" style="fill: none; stroke: #172132; stroke-opacity: 0.1; stroke-width: 0.8; stroke-linecap: square"/>
     </g>
     <g id="line2d_22"/>
     <g id="text_15">
      <text style="fill: #6f746f; font: 11px 'Arial', 'Helvetica Neue', 'DejaVu Sans'; text-anchor: end" x="62.12" y="84.612797" transform="rotate(-0 62.12 84.612797)">70</text>
     </g>
    </g>
    <g id="text_16">
     <text style="fill: #6f746f; font: 11px 'Arial', 'Helvetica Neue', 'DejaVu Sans'; text-anchor: middle" x="43.699688" y="235.71" transform="rotate(-90 43.699688 235.71)">Percent of GDP</text>
    </g>
   </g>
   <g id="PolyCollection_1">
    <defs>
     <path id="m58265bac96" d="M 102.894545 -84.24324 
L 102.894545 -116.31924 
L 199.393247 -165.93012 
L 295.891948 -186.6726 
L 392.390649 -190.30788 
L 488.889351 -229.11984 
L 585.388052 -311.769 
L 681.886753 -328.76928 
L 778.385455 -388.96524 
L 778.385455 -84.24324 
L 778.385455 -84.24324 
L 681.886753 -84.24324 
L 585.388052 -84.24324 
L 488.889351 -84.24324 
L 392.390649 -84.24324 
L 295.891948 -84.24324 
L 199.393247 -84.24324 
L 102.894545 -84.24324 
z
" style="stroke: #c9583e; stroke-opacity: 0.08"/>
    </defs>
    <g clip-path="url(#p52c5eb8ebc)">
     <use xlink:href="#m58265bac96" x="0" y="486" style="fill: #c9583e; fill-opacity: 0.08; stroke: #c9583e; stroke-opacity: 0.08"/>
    </g>
   </g>
   <g id="line2d_23">
    <path d="M 102.894545 369.68076 
L 199.393247 320.06988 
L 295.891948 299.3274 
L 392.390649 295.69212 
L 488.889351 256.88016 
L 585.388052 174.231 
L 681.886753 157.23072 
L 778.385455 97.03476 
" clip-path="url(#p52c5eb8ebc)" style="fill: none; stroke: #c9583e; stroke-width: 3.2; stroke-linecap: square"/>
    <defs>
     <path id="m1309f55eaf" d="M 0 2.75 
C 0.729309 2.75 1.428845 2.460243 1.944544 1.944544 
C 2.460243 1.428845 2.75 0.729309 2.75 0 
C 2.75 -0.729309 2.460243 -1.428845 1.944544 -1.944544 
C 1.428845 -2.460243 0.729309 -2.75 0 -2.75 
C -0.729309 -2.75 -1.428845 -2.460243 -1.944544 -1.944544 
C -2.460243 -1.428845 -2.75 -0.729309 -2.75 0 
C -2.75 0.729309 -2.460243 1.428845 -1.944544 1.944544 
C -1.428845 2.460243 -0.729309 2.75 0 2.75 
z
" style="stroke: #c9583e"/>
    </defs>
    <g clip-path="url(#p52c5eb8ebc)">
     <use xlink:href="#m1309f55eaf" x="102.894545" y="369.68076" style="fill: #c9583e; stroke: #c9583e"/>
     <use xlink:href="#m1309f55eaf" x="199.393247" y="320.06988" style="fill: #c9583e; stroke: #c9583e"/>
     <use xlink:href="#m1309f55eaf" x="295.891948" y="299.3274" style="fill: #c9583e; stroke: #c9583e"/>
     <use xlink:href="#m1309f55eaf" x="392.390649" y="295.69212" style="fill: #c9583e; stroke: #c9583e"/>
     <use xlink:href="#m1309f55eaf" x="488.889351" y="256.88016" style="fill: #c9583e; stroke: #c9583e"/>
     <use xlink:href="#m1309f55eaf" x="585.388052" y="174.231" style="fill: #c9583e; stroke: #c9583e"/>
     <use xlink:href="#m1309f55eaf" x="681.886753" y="157.23072" style="fill: #c9583e; stroke: #c9583e"/>
     <use xlink:href="#m1309f55eaf" x="778.385455" y="97.03476" style="fill: #c9583e; stroke: #c9583e"/>
    </g>
   </g>
   <g id="text_17">
    <text style="fill: #c9583e; font: 700 11px 'Arial', 'Helvetica Neue', 'DejaVu Sans'; text-anchor: middle" x="102.894545" y="401.076754" transform="rotate(-0 102.894545 401.076754)">42.97%</text>
   </g>
   <g id="text_18">
    <text style="fill: #c9583e; font: 700 11px 'Arial', 'Helvetica Neue', 'DejaVu Sans'; text-anchor: middle" x="778.385455" y="79.895179" transform="rotate(-0 778.385455 79.895179)">68.47%</text>
   </g>
   <g id="text_19">
    <text style="fill: #172132; font: 700 12.5px 'Arial', 'Helvetica Neue', 'DejaVu Sans'; text-anchor: start" x="69.12" y="29.889" transform="rotate(-0 69.12 29.889)">Broad local government debt · China</text>
   </g>
   <g id="text_20">
    <text style="fill: #6f746f; font: 9.2px 'Arial', 'Helvetica Neue', 'DejaVu Sans'; text-anchor: start" x="69.12" y="52.3422" transform="rotate(-0 69.12 52.3422)">Broad measure = official local debt + LGFV liabilities</text>
   </g>
   <g id="text_21">
    <text style="fill: #6f746f; font: 9.2px 'Arial', 'Helvetica Neue', 'DejaVu Sans'; text-anchor: end" x="812.16" y="52.3422" transform="rotate(-0 812.16 52.3422)">Published chart values vector-digitized</text>
   </g>
  </g>
  <g id="text_22">
   <text style="fill: #6f746f; font: 8.8px 'Arial', 'Helvetica Neue', 'DejaVu Sans'; text-anchor: end" x="833.76" y="472.392" transform="rotate(-0 833.76 472.392)">Source: Chang, Wang &amp; Xiong (2025), Figure 6 (vector-digitized)</text>
  </g>
 </g>
 <defs>
  <clipPath id="p52c5eb8ebc">
   <rect x="69.12" y="48.6" width="743.04" height="374.22"/>
  </clipPath>
 </defs>
</svg>
