<?xml version="1.0" encoding="utf-8" standalone="no"?>
<!DOCTYPE svg PUBLIC "-//W3C//DTD SVG 1.1//EN"
  "http://www.w3.org/Graphics/SVG/1.1/DTD/svg11.dtd">
<svg xmlns:xlink="http://www.w3.org/1999/xlink" width="864pt" height="486pt" viewBox="0 0 864 486" xmlns="http://www.w3.org/2000/svg" version="1.1">
 <metadata>
  <rdf:RDF xmlns:dc="http://purl.org/dc/elements/1.1/" xmlns:cc="http://creativecommons.org/ns#" xmlns:rdf="http://www.w3.org/1999/02/22-rdf-syntax-ns#">
   <cc:Work>
    <dc:type rdf:resource="http://purl.org/dc/dcmitype/StillImage"/>
    <dc:format>image/svg+xml</dc:format>
    <dc:creator>
     <cc:Agent>
      <dc:title>make_lecture1_figures.py</dc:title>
     </cc:Agent>
    </dc:creator>
   </cc:Work>
  </rdf:RDF>
 </metadata>
 <defs>
  <style type="text/css">*{stroke-linejoin: round; stroke-linecap: butt}</style>
 </defs>
 <g id="figure_1">
  <g id="patch_1">
   <path d="M 0 486 
L 864 486 
L 864 0 
L 0 0 
z
" style="fill: #f7f3ea"/>
  </g>
  <g id="axes_1">
   <g id="patch_2">
    <path d="M 86.4 246.512376 
L 803.52 246.512376 
L 803.52 48.6 
L 86.4 48.6 
z
" style="fill: #f7f3ea"/>
   </g>
   <g id="matplotlib.axis_1">
    <g id="xtick_1">
     <g id="line2d_1"/>
    </g>
    <g id="xtick_2">
     <g id="line2d_2"/>
    </g>
    <g id="xtick_3">
     <g id="line2d_3"/>
    </g>
    <g id="xtick_4">
     <g id="line2d_4"/>
    </g>
    <g id="xtick_5">
     <g id="line2d_5"/>
    </g>
    <g id="xtick_6">
     <g id="line2d_6"/>
    </g>
   </g>
   <g id="matplotlib.axis_2">
    <g id="ytick_1">
     <g id="line2d_7">
      <path d="M 86.4 246.512376 
L 803.52 246.512376 
" clip-path="url(#p970b6f0754)" style="fill: none; stroke: #172132; stroke-opacity: 0.1; stroke-width: 0.8; stroke-linecap: square"/>
     </g>
     <g id="line2d_8"/>
     <g id="text_1">
      <text style="fill: #6f746f; font: 11px 'Arial', 'Helvetica Neue', 'DejaVu Sans'; text-anchor: end" x="79.4" y="250.449173" transform="rotate(-0 79.4 250.449173)">0</text>
     </g>
    </g>
    <g id="ytick_2">
     <g id="line2d_9">
      <path d="M 86.4 214.453794 
L 803.52 214.453794 
" clip-path="url(#p970b6f0754)" style="fill: none; stroke: #172132; stroke-opacity: 0.1; stroke-width: 0.8; stroke-linecap: square"/>
     </g>
     <g id="line2d_10"/>
     <g id="text_2">
      <text style="fill: #6f746f; font: 11px 'Arial', 'Helvetica Neue', 'DejaVu Sans'; text-anchor: end" x="79.4" y="218.39059" transform="rotate(-0 79.4 218.39059)">200</text>
     </g>
    </g>
    <g id="ytick_3">
     <g id="line2d_11">
      <path d="M 86.4 182.395211 
L 803.52 182.395211 
" clip-path="url(#p970b6f0754)" style="fill: none; stroke: #172132; stroke-opacity: 0.1; stroke-width: 0.8; stroke-linecap: square"/>
     </g>
     <g id="line2d_12"/>
     <g id="text_3">
      <text style="fill: #6f746f; font: 11px 'Arial', 'Helvetica Neue', 'DejaVu Sans'; text-anchor: end" x="79.4" y="186.332008" transform="rotate(-0 79.4 186.332008)">400</text>
     </g>
    </g>
    <g id="ytick_4">
     <g id="line2d_13">
      <path d="M 86.4 150.336629 
L 803.52 150.336629 
" clip-path="url(#p970b6f0754)" style="fill: none; stroke: #172132; stroke-opacity: 0.1; stroke-width: 0.8; stroke-linecap: square"/>
     </g>
     <g id="line2d_14"/>
     <g id="text_4">
      <text style="fill: #6f746f; font: 11px 'Arial', 'Helvetica Neue', 'DejaVu Sans'; text-anchor: end" x="79.4" y="154.273426" transform="rotate(-0 79.4 154.273426)">600</text>
     </g>
    </g>
    <g id="ytick_5">
     <g id="line2d_15">
      <path d="M 86.4 118.278046 
L 803.52 118.278046 
" clip-path="url(#p970b6f0754)" style="fill: none; stroke: #172132; stroke-opacity: 0.1; stroke-width: 0.8; stroke-linecap: square"/>
     </g>
     <g id="line2d_16"/>
     <g id="text_5">
      <text style="fill: #6f746f; font: 11px 'Arial', 'Helvetica Neue', 'DejaVu Sans'; text-anchor: end" x="79.4" y="122.214843" transform="rotate(-0 79.4 122.214843)">800</text>
     </g>
    </g>
    <g id="ytick_6">
     <g id="line2d_17">
      <path d="M 86.4 86.219464 
L 803.52 86.219464 
" clip-path="url(#p970b6f0754)" style="fill: none; stroke: #172132; stroke-opacity: 0.1; stroke-width: 0.8; stroke-linecap: square"/>
     </g>
     <g id="line2d_18"/>
     <g id="text_6">
      <text style="fill: #6f746f; font: 11px 'Arial', 'Helvetica Neue', 'DejaVu Sans'; text-anchor: end" x="79.4" y="90.156261" transform="rotate(-0 79.4 90.156261)">1000</text>
     </g>
    </g>
    <g id="ytick_7">
     <g id="line2d_19">
      <path d="M 86.4 54.160882 
L 803.52 54.160882 
" clip-path="url(#p970b6f0754)" style="fill: none; stroke: #172132; stroke-opacity: 0.1; stroke-width: 0.8; stroke-linecap: square"/>
     </g>
     <g id="line2d_20"/>
     <g id="text_7">
      <text style="fill: #6f746f; font: 11px 'Arial', 'Helvetica Neue', 'DejaVu Sans'; text-anchor: end" x="79.4" y="58.097679" transform="rotate(-0 79.4 58.097679)">1200</text>
     </g>
    </g>
    <g id="text_8">
     <text style="fill: #6f746f; font: 11px 'Arial', 'Helvetica Neue', 'DejaVu Sans'; text-anchor: middle" x="48.745625" y="147.556188" transform="rotate(-90 48.745625 147.556188)">Million users</text>
    </g>
   </g>
   <g id="PolyCollection_1">
    <defs>
     <path id="m2b872fa9fb" d="M 118.996364 -239.487624 
L 118.996364 -244.77729 
L 157.345027 -247.822855 
L 195.69369 -254.564775 
L 234.042353 -261.478209 
L 272.391016 -266.21807 
L 310.739679 -274.856255 
L 349.088342 -281.19584 
L 387.437005 -288.26636 
L 425.785668 -306.198328 
L 464.134332 -315.546611 
L 502.482995 -324.61919 
L 540.831658 -335.727488 
L 540.831658 -239.487624 
L 540.831658 -239.487624 
L 502.482995 -239.487624 
L 464.134332 -239.487624 
L 425.785668 -239.487624 
L 387.437005 -239.487624 
L 349.088342 -239.487624 
L 310.739679 -239.487624 
L 272.391016 -239.487624 
L 234.042353 -239.487624 
L 195.69369 -239.487624 
L 157.345027 -239.487624 
L 118.996364 -239.487624 
z
" style="stroke: #4b718a; stroke-opacity: 0.1"/>
    </defs>
    <g clip-path="url(#p970b6f0754)">
     <use xlink:href="#m2b872fa9fb" x="0" y="486" style="fill: #4b718a; fill-opacity: 0.1; stroke: #4b718a; stroke-opacity: 0.1"/>
    </g>
   </g>
   <g id="PolyCollection_2">
    <defs>
     <path id="m0eca3f84fb" d="M 617.528984 -239.487624 
L 617.528984 -376.43227 
L 655.877647 -384.333108 
L 694.22631 -385.584996 
L 732.574973 -392.384621 
L 770.923636 -404.414604 
L 770.923636 -239.487624 
L 770.923636 -239.487624 
L 732.574973 -239.487624 
L 694.22631 -239.487624 
L 655.877647 -239.487624 
L 617.528984 -239.487624 
z
" style="stroke: #4b718a; stroke-opacity: 0.1"/>
    </defs>
    <g clip-path="url(#p970b6f0754)">
     <use xlink:href="#m0eca3f84fb" x="0" y="486" style="fill: #4b718a; fill-opacity: 0.1; stroke: #4b718a; stroke-opacity: 0.1"/>
    </g>
   </g>
   <g id="line2d_21">
    <path d="M 118.996364 241.22271 
L 157.345027 238.177145 
L 195.69369 231.435225 
L 234.042353 224.521791 
L 272.391016 219.78193 
L 310.739679 211.143745 
L 349.088342 204.80416 
L 387.437005 197.73364 
L 425.785668 179.801672 
L 464.134332 170.453389 
L 502.482995 161.38081 
L 540.831658 150.272512 
" clip-path="url(#p970b6f0754)" style="fill: none; stroke: #4b718a; stroke-width: 2.5; stroke-linecap: square"/>
    <defs>
     <path id="m1ef9eab9a9" d="M 0 1.9 
C 0.503886 1.9 0.987202 1.699804 1.343503 1.343503 
C 1.699804 0.987202 1.9 0.503886 1.9 0 
C 1.9 -0.503886 1.699804 -0.987202 1.343503 -1.343503 
C 0.987202 -1.699804 0.503886 -1.9 0 -1.9 
C -0.503886 -1.9 -0.987202 -1.699804 -1.343503 -1.343503 
C -1.699804 -0.987202 -1.9 -0.503886 -1.9 0 
C -1.9 0.503886 -1.699804 0.987202 -1.343503 1.343503 
C -0.987202 1.699804 -0.503886 1.9 0 1.9 
z
" style="stroke: #4b718a"/>
    </defs>
    <g clip-path="url(#p970b6f0754)">
     <use xlink:href="#m1ef9eab9a9" x="118.996364" y="241.22271" style="fill: #4b718a; stroke: #4b718a"/>
     <use xlink:href="#m1ef9eab9a9" x="157.345027" y="238.177145" style="fill: #4b718a; stroke: #4b718a"/>
     <use xlink:href="#m1ef9eab9a9" x="195.69369" y="231.435225" style="fill: #4b718a; stroke: #4b718a"/>
     <use xlink:href="#m1ef9eab9a9" x="234.042353" y="224.521791" style="fill: #4b718a; stroke: #4b718a"/>
     <use xlink:href="#m1ef9eab9a9" x="272.391016" y="219.78193" style="fill: #4b718a; stroke: #4b718a"/>
     <use xlink:href="#m1ef9eab9a9" x="310.739679" y="211.143745" style="fill: #4b718a; stroke: #4b718a"/>
     <use xlink:href="#m1ef9eab9a9" x="349.088342" y="204.80416" style="fill: #4b718a; stroke: #4b718a"/>
     <use xlink:href="#m1ef9eab9a9" x="387.437005" y="197.73364" style="fill: #4b718a; stroke: #4b718a"/>
     <use xlink:href="#m1ef9eab9a9" x="425.785668" y="179.801672" style="fill: #4b718a; stroke: #4b718a"/>
     <use xlink:href="#m1ef9eab9a9" x="464.134332" y="170.453389" style="fill: #4b718a; stroke: #4b718a"/>
     <use xlink:href="#m1ef9eab9a9" x="502.482995" y="161.38081" style="fill: #4b718a; stroke: #4b718a"/>
     <use xlink:href="#m1ef9eab9a9" x="540.831658" y="150.272512" style="fill: #4b718a; stroke: #4b718a"/>
    </g>
   </g>
   <g id="line2d_22">
    <path d="M 617.528984 109.56773 
L 655.877647 101.666892 
L 694.22631 100.415004 
L 732.574973 93.615379 
L 770.923636 81.585396 
" clip-path="url(#p970b6f0754)" style="fill: none; stroke: #4b718a; stroke-width: 2.5; stroke-linecap: square"/>
    <g clip-path="url(#p970b6f0754)">
     <use xlink:href="#m1ef9eab9a9" x="617.528984" y="109.56773" style="fill: #4b718a; stroke: #4b718a"/>
     <use xlink:href="#m1ef9eab9a9" x="655.877647" y="101.666892" style="fill: #4b718a; stroke: #4b718a"/>
     <use xlink:href="#m1ef9eab9a9" x="694.22631" y="100.415004" style="fill: #4b718a; stroke: #4b718a"/>
     <use xlink:href="#m1ef9eab9a9" x="732.574973" y="93.615379" style="fill: #4b718a; stroke: #4b718a"/>
     <use xlink:href="#m1ef9eab9a9" x="770.923636" y="81.585396" style="fill: #4b718a; stroke: #4b718a"/>
    </g>
   </g>
   <g id="line2d_23">
    <path d="M 579.180321 246.512376 
L 579.180321 48.6 
" clip-path="url(#p970b6f0754)" style="fill: none; stroke-dasharray: 3.6,3.6; stroke-dashoffset: 0; stroke: #d8d1c3; stroke-width: 1.2"/>
   </g>
   <g id="text_9">
    <text style="fill: #172132; font: 700 11px 'Arial', 'Helvetica Neue', 'DejaVu Sans'; text-anchor: middle" x="118.996364" y="237.696266" transform="rotate(-0 118.996364 237.696266)">33.00</text>
   </g>
   <g id="text_10">
    <text style="fill: #172132; font: 700 11px 'Arial', 'Helvetica Neue', 'DejaVu Sans'; text-anchor: middle" x="387.437005" y="194.207196" transform="rotate(-0 387.437005 194.207196)">304.31</text>
   </g>
   <g id="text_11">
    <text style="fill: #172132; font: 700 11px 'Arial', 'Helvetica Neue', 'DejaVu Sans'; text-anchor: middle" x="540.831658" y="146.746068" transform="rotate(-0 540.831658 146.746068)">600.40</text>
   </g>
   <g id="text_12">
    <text style="fill: #172132; font: 700 11px 'Arial', 'Helvetica Neue', 'DejaVu Sans'; text-anchor: middle" x="617.528984" y="106.041286" transform="rotate(-0 617.528984 106.041286)">854.34</text>
   </g>
   <g id="text_13">
    <text style="fill: #172132; font: 700 11px 'Arial', 'Helvetica Neue', 'DejaVu Sans'; text-anchor: middle" x="770.923636" y="78.058952" transform="rotate(-0 770.923636 78.058952)">1,028.91</text>
   </g>
   <g id="text_14">
    <text style="fill: #172132; font: 700 12px 'Arial', 'Helvetica Neue', 'DejaVu Sans'; text-anchor: start" x="86.4" y="36.725257" transform="rotate(-0 86.4 36.725257)">China · Online/network payment</text>
   </g>
   <g id="text_15">
    <text style="fill: #6f746f; font: 9px 'Arial', 'Helvetica Neue', 'DejaVu Sans'; text-anchor: middle" x="579.180321" y="72.349485" transform="rotate(-0 579.180321 72.349485)">2019: no year-end observation</text>
   </g>
  </g>
  <g id="axes_2">
   <g id="patch_3">
    <path d="M 86.4 413.1 
L 803.52 413.1 
L 803.52 276.608706 
L 86.4 276.608706 
z
" style="fill: #f7f3ea"/>
   </g>
   <g id="matplotlib.axis_3">
    <g id="xtick_7">
     <g id="line2d_24"/>
     <g id="text_16">
      <text style="fill: #6f746f; font: 11px 'Arial', 'Helvetica Neue', 'DejaVu Sans'; text-anchor: middle" x="118.996364" y="427.973594" transform="rotate(-0 118.996364 427.973594)">2007</text>
     </g>
    </g>
    <g id="xtick_8">
     <g id="line2d_25"/>
     <g id="text_17">
      <text style="fill: #6f746f; font: 11px 'Arial', 'Helvetica Neue', 'DejaVu Sans'; text-anchor: middle" x="234.042353" y="427.973594" transform="rotate(-0 234.042353 427.973594)">2010</text>
     </g>
    </g>
    <g id="xtick_9">
     <g id="line2d_26"/>
     <g id="text_18">
      <text style="fill: #6f746f; font: 11px 'Arial', 'Helvetica Neue', 'DejaVu Sans'; text-anchor: middle" x="387.437005" y="427.973594" transform="rotate(-0 387.437005 427.973594)">2014</text>
     </g>
    </g>
    <g id="xtick_10">
     <g id="line2d_27"/>
     <g id="text_19">
      <text style="fill: #6f746f; font: 11px 'Arial', 'Helvetica Neue', 'DejaVu Sans'; text-anchor: middle" x="540.831658" y="427.973594" transform="rotate(-0 540.831658 427.973594)">2018</text>
     </g>
    </g>
    <g id="xtick_11">
     <g id="line2d_28"/>
     <g id="text_20">
      <text style="fill: #6f746f; font: 11px 'Arial', 'Helvetica Neue', 'DejaVu Sans'; text-anchor: middle" x="617.528984" y="427.973594" transform="rotate(-0 617.528984 427.973594)">2020</text>
     </g>
    </g>
    <g id="xtick_12">
     <g id="line2d_29"/>
     <g id="text_21">
      <text style="fill: #6f746f; font: 11px 'Arial', 'Helvetica Neue', 'DejaVu Sans'; text-anchor: middle" x="770.923636" y="427.973594" transform="rotate(-0 770.923636 427.973594)">2024</text>
     </g>
    </g>
   </g>
   <g id="matplotlib.axis_4">
    <g id="ytick_8">
     <g id="line2d_30">
      <path d="M 86.4 401.259791 
L 803.52 401.259791 
" clip-path="url(#pa35d197d46)" style="fill: none; stroke: #172132; stroke-opacity: 0.1; stroke-width: 0.8; stroke-linecap: square"/>
     </g>
     <g id="line2d_31"/>
     <g id="text_22">
      <text style="fill: #6f746f; font: 11px 'Arial', 'Helvetica Neue', 'DejaVu Sans'; text-anchor: end" x="79.4" y="405.196588" transform="rotate(-0 79.4 405.196588)">20</text>
     </g>
    </g>
    <g id="ytick_9">
     <g id="line2d_32">
      <path d="M 86.4 368.370323 
L 803.52 368.370323 
" clip-path="url(#pa35d197d46)" style="fill: none; stroke: #172132; stroke-opacity: 0.1; stroke-width: 0.8; stroke-linecap: square"/>
     </g>
     <g id="line2d_33"/>
     <g id="text_23">
      <text style="fill: #6f746f; font: 11px 'Arial', 'Helvetica Neue', 'DejaVu Sans'; text-anchor: end" x="79.4" y="372.30712" transform="rotate(-0 79.4 372.30712)">40</text>
     </g>
    </g>
    <g id="ytick_10">
     <g id="line2d_34">
      <path d="M 86.4 335.480855 
L 803.52 335.480855 
" clip-path="url(#pa35d197d46)" style="fill: none; stroke: #172132; stroke-opacity: 0.1; stroke-width: 0.8; stroke-linecap: square"/>
     </g>
     <g id="line2d_35"/>
     <g id="text_24">
      <text style="fill: #6f746f; font: 11px 'Arial', 'Helvetica Neue', 'DejaVu Sans'; text-anchor: end" x="79.4" y="339.417652" transform="rotate(-0 79.4 339.417652)">60</text>
     </g>
    </g>
    <g id="ytick_11">
     <g id="line2d_36">
      <path d="M 86.4 302.591386 
L 803.52 302.591386 
" clip-path="url(#pa35d197d46)" style="fill: none; stroke: #172132; stroke-opacity: 0.1; stroke-width: 0.8; stroke-linecap: square"/>
     </g>
     <g id="line2d_37"/>
     <g id="text_25">
      <text style="fill: #6f746f; font: 11px 'Arial', 'Helvetica Neue', 'DejaVu Sans'; text-anchor: end" x="79.4" y="306.528183" transform="rotate(-0 79.4 306.528183)">80</text>
     </g>
    </g>
    <g id="text_26">
     <text style="fill: #6f746f; font: 11px 'Arial', 'Helvetica Neue', 'DejaVu Sans'; text-anchor: middle" x="60.979688" y="344.854353" transform="rotate(-90 60.979688 344.854353)">Percent of internet users</text>
    </g>
   </g>
   <g id="line2d_38">
    <path d="M 118.996364 408.16658 
L 157.345027 405.206528 
L 195.69369 393.859661 
L 234.042353 384.815057 
L 272.391016 380.703874 
L 310.739679 369.850349 
L 349.088342 364.916929 
L 387.437005 357.023456 
L 425.785668 334.658618 
L 464.134332 327.422935 
L 502.482995 321.009489 
L 540.831658 314.924937 
" clip-path="url(#pa35d197d46)" style="fill: none; stroke: #c9583e; stroke-width: 2.5; stroke-linecap: square"/>
    <defs>
     <path id="m2a2a0d9c8d" d="M 0 1.9 
C 0.503886 1.9 0.987202 1.699804 1.343503 1.343503 
C 1.699804 0.987202 1.9 0.503886 1.9 0 
C 1.9 -0.503886 1.699804 -0.987202 1.343503 -1.343503 
C 0.987202 -1.699804 0.503886 -1.9 0 -1.9 
C -0.503886 -1.9 -0.987202 -1.699804 -1.343503 -1.343503 
C -1.699804 -0.987202 -1.9 -0.503886 -1.9 0 
C -1.9 0.503886 -1.699804 0.987202 -1.343503 1.343503 
C -0.987202 1.699804 -0.503886 1.9 0 1.9 
z
" style="stroke: #c9583e"/>
    </defs>
    <g clip-path="url(#pa35d197d46)">
     <use xlink:href="#m2a2a0d9c8d" x="118.996364" y="408.16658" style="fill: #c9583e; stroke: #c9583e"/>
     <use xlink:href="#m2a2a0d9c8d" x="157.345027" y="405.206528" style="fill: #c9583e; stroke: #c9583e"/>
     <use xlink:href="#m2a2a0d9c8d" x="195.69369" y="393.859661" style="fill: #c9583e; stroke: #c9583e"/>
     <use xlink:href="#m2a2a0d9c8d" x="234.042353" y="384.815057" style="fill: #c9583e; stroke: #c9583e"/>
     <use xlink:href="#m2a2a0d9c8d" x="272.391016" y="380.703874" style="fill: #c9583e; stroke: #c9583e"/>
     <use xlink:href="#m2a2a0d9c8d" x="310.739679" y="369.850349" style="fill: #c9583e; stroke: #c9583e"/>
     <use xlink:href="#m2a2a0d9c8d" x="349.088342" y="364.916929" style="fill: #c9583e; stroke: #c9583e"/>
     <use xlink:href="#m2a2a0d9c8d" x="387.437005" y="357.023456" style="fill: #c9583e; stroke: #c9583e"/>
     <use xlink:href="#m2a2a0d9c8d" x="425.785668" y="334.658618" style="fill: #c9583e; stroke: #c9583e"/>
     <use xlink:href="#m2a2a0d9c8d" x="464.134332" y="327.422935" style="fill: #c9583e; stroke: #c9583e"/>
     <use xlink:href="#m2a2a0d9c8d" x="502.482995" y="321.009489" style="fill: #c9583e; stroke: #c9583e"/>
     <use xlink:href="#m2a2a0d9c8d" x="540.831658" y="314.924937" style="fill: #c9583e; stroke: #c9583e"/>
    </g>
   </g>
   <g id="line2d_39">
    <path d="M 617.528984 292.066756 
L 655.877647 290.093388 
L 694.22631 293.71123 
L 732.574973 290.58673 
L 770.923636 281.542126 
" clip-path="url(#pa35d197d46)" style="fill: none; stroke: #c9583e; stroke-width: 2.5; stroke-linecap: square"/>
    <g clip-path="url(#pa35d197d46)">
     <use xlink:href="#m2a2a0d9c8d" x="617.528984" y="292.066756" style="fill: #c9583e; stroke: #c9583e"/>
     <use xlink:href="#m2a2a0d9c8d" x="655.877647" y="290.093388" style="fill: #c9583e; stroke: #c9583e"/>
     <use xlink:href="#m2a2a0d9c8d" x="694.22631" y="293.71123" style="fill: #c9583e; stroke: #c9583e"/>
     <use xlink:href="#m2a2a0d9c8d" x="732.574973" y="290.58673" style="fill: #c9583e; stroke: #c9583e"/>
     <use xlink:href="#m2a2a0d9c8d" x="770.923636" y="281.542126" style="fill: #c9583e; stroke: #c9583e"/>
    </g>
   </g>
   <g id="line2d_40">
    <path d="M 579.180321 413.1 
L 579.180321 276.608706 
" clip-path="url(#pa35d197d46)" style="fill: none; stroke-dasharray: 3.6,3.6; stroke-dashoffset: 0; stroke: #d8d1c3; stroke-width: 1.2"/>
   </g>
   <g id="text_27">
    <text style="fill: #c9583e; font: 700 11px 'Arial', 'Helvetica Neue', 'DejaVu Sans'; text-anchor: middle" x="118.996364" y="407.015448" transform="rotate(-0 118.996364 407.015448)">15.8%</text>
   </g>
   <g id="text_28">
    <text style="fill: #c9583e; font: 700 11px 'Arial', 'Helvetica Neue', 'DejaVu Sans'; text-anchor: middle" x="387.437005" y="355.872325" transform="rotate(-0 387.437005 355.872325)">46.9%</text>
   </g>
   <g id="text_29">
    <text style="fill: #c9583e; font: 700 11px 'Arial', 'Helvetica Neue', 'DejaVu Sans'; text-anchor: middle" x="540.831658" y="313.773806" transform="rotate(-0 540.831658 313.773806)">72.5%</text>
   </g>
   <g id="text_30">
    <text style="fill: #c9583e; font: 700 11px 'Arial', 'Helvetica Neue', 'DejaVu Sans'; text-anchor: middle" x="617.528984" y="290.915625" transform="rotate(-0 617.528984 290.915625)">86.4%</text>
   </g>
   <g id="text_31">
    <text style="fill: #c9583e; font: 700 11px 'Arial', 'Helvetica Neue', 'DejaVu Sans'; text-anchor: middle" x="770.923636" y="280.390995" transform="rotate(-0 770.923636 280.390995)">92.8%</text>
   </g>
  </g>
  <g id="text_32">
   <text style="fill: #6f746f; font: 8.8px 'Arial', 'Helvetica Neue', 'DejaVu Sans'; text-anchor: end" x="833.76" y="472.392" transform="rotate(-0 833.76 472.392)">Source: CNNIC</text>
  </g>
 </g>
 <defs>
  <clipPath id="p970b6f0754">
   <rect x="86.4" y="48.6" width="717.12" height="197.912376"/>
  </clipPath>
  <clipPath id="pa35d197d46">
   <rect x="86.4" y="276.608706" width="717.12" height="136.491294"/>
  </clipPath>
 </defs>
</svg>
