<?xml version="1.0" encoding="utf-8" standalone="no"?>
<!DOCTYPE svg PUBLIC "-//W3C//DTD SVG 1.1//EN"
  "http://www.w3.org/Graphics/SVG/1.1/DTD/svg11.dtd">
<svg xmlns:xlink="http://www.w3.org/1999/xlink" width="864pt" height="486pt" viewBox="0 0 864 486" xmlns="http://www.w3.org/2000/svg" version="1.1">
 <metadata>
  <rdf:RDF xmlns:dc="http://purl.org/dc/elements/1.1/" xmlns:cc="http://creativecommons.org/ns#" xmlns:rdf="http://www.w3.org/1999/02/22-rdf-syntax-ns#">
   <cc:Work>
    <dc:type rdf:resource="http://purl.org/dc/dcmitype/StillImage"/>
    <dc:format>image/svg+xml</dc:format>
    <dc:creator>
     <cc:Agent>
      <dc:title>make_lecture1_figures.py</dc:title>
     </cc:Agent>
    </dc:creator>
   </cc:Work>
  </rdf:RDF>
 </metadata>
 <defs>
  <style type="text/css">*{stroke-linejoin: round; stroke-linecap: butt}</style>
 </defs>
 <g id="figure_1">
  <g id="patch_1">
   <path d="M 0 486 
L 864 486 
L 864 0 
L 0 0 
z
" style="fill: #f7f3ea"/>
  </g>
  <g id="axes_1">
   <g id="patch_2">
    <path d="M 86.4 413.1 
L 673.92 413.1 
L 673.92 43.74 
L 86.4 43.74 
z
" style="fill: #f7f3ea"/>
   </g>
   <g id="matplotlib.axis_1">
    <g id="xtick_1">
     <g id="line2d_1"/>
     <g id="text_1">
      <text style="fill: #6f746f; font: 11px 'Arial', 'Helvetica Neue', 'DejaVu Sans'; text-anchor: middle" x="94.207575" y="427.973594" transform="rotate(-0 94.207575 427.973594)">2000</text>
     </g>
    </g>
    <g id="xtick_2">
     <g id="line2d_2"/>
     <g id="text_2">
      <text style="fill: #6f746f; font: 11px 'Arial', 'Helvetica Neue', 'DejaVu Sans'; text-anchor: middle" x="191.802259" y="427.973594" transform="rotate(-0 191.802259 427.973594)">2005</text>
     </g>
    </g>
    <g id="xtick_3">
     <g id="line2d_3"/>
     <g id="text_3">
      <text style="fill: #6f746f; font: 11px 'Arial', 'Helvetica Neue', 'DejaVu Sans'; text-anchor: middle" x="289.396944" y="427.973594" transform="rotate(-0 289.396944 427.973594)">2010</text>
     </g>
    </g>
    <g id="xtick_4">
     <g id="line2d_4"/>
     <g id="text_4">
      <text style="fill: #6f746f; font: 11px 'Arial', 'Helvetica Neue', 'DejaVu Sans'; text-anchor: middle" x="386.991628" y="427.973594" transform="rotate(-0 386.991628 427.973594)">2015</text>
     </g>
    </g>
    <g id="xtick_5">
     <g id="line2d_5"/>
     <g id="text_5">
      <text style="fill: #6f746f; font: 11px 'Arial', 'Helvetica Neue', 'DejaVu Sans'; text-anchor: middle" x="484.586312" y="427.973594" transform="rotate(-0 484.586312 427.973594)">2020</text>
     </g>
    </g>
    <g id="xtick_6">
     <g id="line2d_6"/>
     <g id="text_6">
      <text style="fill: #6f746f; font: 11px 'Arial', 'Helvetica Neue', 'DejaVu Sans'; text-anchor: middle" x="582.180997" y="427.973594" transform="rotate(-0 582.180997 427.973594)">2025</text>
     </g>
    </g>
   </g>
   <g id="matplotlib.axis_2">
    <g id="ytick_1">
     <g id="line2d_7">
      <path d="M 86.4 386.292395 
L 673.92 386.292395 
" clip-path="url(#pd944ec5acc)" style="fill: none; stroke: #172132; stroke-opacity: 0.1; stroke-width: 0.8; stroke-linecap: square"/>
     </g>
     <g id="line2d_8"/>
     <g id="text_7">
      <text style="fill: #6f746f; font: 11px 'Arial', 'Helvetica Neue', 'DejaVu Sans'; text-anchor: end" x="79.4" y="390.229192" transform="rotate(-0 79.4 390.229192)">100</text>
     </g>
    </g>
    <g id="ytick_2">
     <g id="line2d_9">
      <path d="M 86.4 321.656819 
L 673.92 321.656819 
" clip-path="url(#pd944ec5acc)" style="fill: none; stroke: #172132; stroke-opacity: 0.1; stroke-width: 0.8; stroke-linecap: square"/>
     </g>
     <g id="line2d_10"/>
     <g id="text_8">
      <text style="fill: #6f746f; font: 11px 'Arial', 'Helvetica Neue', 'DejaVu Sans'; text-anchor: end" x="79.4" y="325.593615" transform="rotate(-0 79.4 325.593615)">120</text>
     </g>
    </g>
    <g id="ytick_3">
     <g id="line2d_11">
      <path d="M 86.4 257.021242 
L 673.92 257.021242 
" clip-path="url(#pd944ec5acc)" style="fill: none; stroke: #172132; stroke-opacity: 0.1; stroke-width: 0.8; stroke-linecap: square"/>
     </g>
     <g id="line2d_12"/>
     <g id="text_9">
      <text style="fill: #6f746f; font: 11px 'Arial', 'Helvetica Neue', 'DejaVu Sans'; text-anchor: end" x="79.4" y="260.958039" transform="rotate(-0 79.4 260.958039)">140</text>
     </g>
    </g>
    <g id="ytick_4">
     <g id="line2d_13">
      <path d="M 86.4 192.385666 
L 673.92 192.385666 
" clip-path="url(#pd944ec5acc)" style="fill: none; stroke: #172132; stroke-opacity: 0.1; stroke-width: 0.8; stroke-linecap: square"/>
     </g>
     <g id="line2d_14"/>
     <g id="text_10">
      <text style="fill: #6f746f; font: 11px 'Arial', 'Helvetica Neue', 'DejaVu Sans'; text-anchor: end" x="79.4" y="196.322463" transform="rotate(-0 79.4 196.322463)">160</text>
     </g>
    </g>
    <g id="ytick_5">
     <g id="line2d_15">
      <path d="M 86.4 127.75009 
L 673.92 127.75009 
" clip-path="url(#pd944ec5acc)" style="fill: none; stroke: #172132; stroke-opacity: 0.1; stroke-width: 0.8; stroke-linecap: square"/>
     </g>
     <g id="line2d_16"/>
     <g id="text_11">
      <text style="fill: #6f746f; font: 11px 'Arial', 'Helvetica Neue', 'DejaVu Sans'; text-anchor: end" x="79.4" y="131.686887" transform="rotate(-0 79.4 131.686887)">180</text>
     </g>
    </g>
    <g id="ytick_6">
     <g id="line2d_17">
      <path d="M 86.4 63.114514 
L 673.92 63.114514 
" clip-path="url(#pd944ec5acc)" style="fill: none; stroke: #172132; stroke-opacity: 0.1; stroke-width: 0.8; stroke-linecap: square"/>
     </g>
     <g id="line2d_18"/>
     <g id="text_12">
      <text style="fill: #6f746f; font: 11px 'Arial', 'Helvetica Neue', 'DejaVu Sans'; text-anchor: end" x="79.4" y="67.051311" transform="rotate(-0 79.4 67.051311)">200</text>
     </g>
    </g>
    <g id="text_13">
     <text style="fill: #6f746f; font: 11px 'Arial', 'Helvetica Neue', 'DejaVu Sans'; text-anchor: middle" x="54.862656" y="228.42" transform="rotate(-90 54.862656 228.42)">Percent of GDP</text>
    </g>
   </g>
   <g id="line2d_19">
    <path d="M 94.207575 371.74939 
L 113.726512 396.310909 
L 133.245449 352.358717 
L 152.764385 325.211775 
L 172.283322 338.138891 
L 191.802259 359.468631 
L 211.321196 356.56003 
L 230.840133 361.730876 
L 250.35907 365.932188 
L 269.878007 278.67416 
L 289.396944 264.777512 
L 308.91588 264.777512 
L 328.434817 226.642522 
L 347.953754 186.245287 
L 367.472691 153.927498 
L 386.991628 106.097172 
L 406.510565 100.27997 
L 426.029502 119.993821 
L 445.548439 136.475893 
L 465.067375 128.073268 
L 484.586312 87.676033 
L 504.105249 119.670643 
L 523.624186 104.158105 
L 543.143123 85.736966 
L 562.66206 69.901249 
L 582.180997 60.529091 
" clip-path="url(#pd944ec5acc)" style="fill: none; stroke: #c9583e; stroke-width: 2.5; stroke-linecap: square"/>
    <defs>
     <path id="m2a2a0d9c8d" d="M 0 1.9 
C 0.503886 1.9 0.987202 1.699804 1.343503 1.343503 
C 1.699804 0.987202 1.9 0.503886 1.9 0 
C 1.9 -0.503886 1.699804 -0.987202 1.343503 -1.343503 
C 0.987202 -1.699804 0.503886 -1.9 0 -1.9 
C -0.503886 -1.9 -0.987202 -1.699804 -1.343503 -1.343503 
C -1.699804 -0.987202 -1.9 -0.503886 -1.9 0 
C -1.9 0.503886 -1.699804 0.987202 -1.343503 1.343503 
C -0.987202 1.699804 -0.503886 1.9 0 1.9 
z
" style="stroke: #c9583e"/>
    </defs>
    <g clip-path="url(#pd944ec5acc)">
     <use xlink:href="#m2a2a0d9c8d" x="94.207575" y="371.74939" style="fill: #c9583e; stroke: #c9583e"/>
     <use xlink:href="#m2a2a0d9c8d" x="113.726512" y="396.310909" style="fill: #c9583e; stroke: #c9583e"/>
     <use xlink:href="#m2a2a0d9c8d" x="133.245449" y="352.358717" style="fill: #c9583e; stroke: #c9583e"/>
     <use xlink:href="#m2a2a0d9c8d" x="152.764385" y="325.211775" style="fill: #c9583e; stroke: #c9583e"/>
     <use xlink:href="#m2a2a0d9c8d" x="172.283322" y="338.138891" style="fill: #c9583e; stroke: #c9583e"/>
     <use xlink:href="#m2a2a0d9c8d" x="191.802259" y="359.468631" style="fill: #c9583e; stroke: #c9583e"/>
     <use xlink:href="#m2a2a0d9c8d" x="211.321196" y="356.56003" style="fill: #c9583e; stroke: #c9583e"/>
     <use xlink:href="#m2a2a0d9c8d" x="230.840133" y="361.730876" style="fill: #c9583e; stroke: #c9583e"/>
     <use xlink:href="#m2a2a0d9c8d" x="250.35907" y="365.932188" style="fill: #c9583e; stroke: #c9583e"/>
     <use xlink:href="#m2a2a0d9c8d" x="269.878007" y="278.67416" style="fill: #c9583e; stroke: #c9583e"/>
     <use xlink:href="#m2a2a0d9c8d" x="289.396944" y="264.777512" style="fill: #c9583e; stroke: #c9583e"/>
     <use xlink:href="#m2a2a0d9c8d" x="308.91588" y="264.777512" style="fill: #c9583e; stroke: #c9583e"/>
     <use xlink:href="#m2a2a0d9c8d" x="328.434817" y="226.642522" style="fill: #c9583e; stroke: #c9583e"/>
     <use xlink:href="#m2a2a0d9c8d" x="347.953754" y="186.245287" style="fill: #c9583e; stroke: #c9583e"/>
     <use xlink:href="#m2a2a0d9c8d" x="367.472691" y="153.927498" style="fill: #c9583e; stroke: #c9583e"/>
     <use xlink:href="#m2a2a0d9c8d" x="386.991628" y="106.097172" style="fill: #c9583e; stroke: #c9583e"/>
     <use xlink:href="#m2a2a0d9c8d" x="406.510565" y="100.27997" style="fill: #c9583e; stroke: #c9583e"/>
     <use xlink:href="#m2a2a0d9c8d" x="426.029502" y="119.993821" style="fill: #c9583e; stroke: #c9583e"/>
     <use xlink:href="#m2a2a0d9c8d" x="445.548439" y="136.475893" style="fill: #c9583e; stroke: #c9583e"/>
     <use xlink:href="#m2a2a0d9c8d" x="465.067375" y="128.073268" style="fill: #c9583e; stroke: #c9583e"/>
     <use xlink:href="#m2a2a0d9c8d" x="484.586312" y="87.676033" style="fill: #c9583e; stroke: #c9583e"/>
     <use xlink:href="#m2a2a0d9c8d" x="504.105249" y="119.670643" style="fill: #c9583e; stroke: #c9583e"/>
     <use xlink:href="#m2a2a0d9c8d" x="523.624186" y="104.158105" style="fill: #c9583e; stroke: #c9583e"/>
     <use xlink:href="#m2a2a0d9c8d" x="543.143123" y="85.736966" style="fill: #c9583e; stroke: #c9583e"/>
     <use xlink:href="#m2a2a0d9c8d" x="562.66206" y="69.901249" style="fill: #c9583e; stroke: #c9583e"/>
     <use xlink:href="#m2a2a0d9c8d" x="582.180997" y="60.529091" style="fill: #c9583e; stroke: #c9583e"/>
    </g>
   </g>
   <g id="line2d_20">
    <path d="M 94.207575 267.686113 
L 113.726512 252.496752 
L 133.245449 238.923281 
L 152.764385 226.9657 
L 172.283322 214.361762 
L 191.802259 201.111469 
L 211.321196 179.781729 
L 230.840133 158.128811 
L 250.35907 157.805633 
L 269.878007 162.653301 
L 289.396944 191.092955 
L 308.91588 205.959137 
L 328.434817 216.947185 
L 347.953754 220.502142 
L 367.472691 223.410743 
L 386.991628 223.087565 
L 406.510565 217.593541 
L 426.029502 212.099517 
L 445.548439 214.361762 
L 465.067375 215.331296 
L 484.586312 179.135373 
L 504.105249 194.647911 
L 523.624186 213.715406 
L 543.143123 234.075613 
L 562.66206 248.941795 
L 582.180997 256.051709 
" clip-path="url(#pd944ec5acc)" style="fill: none; stroke: #4b718a; stroke-width: 2.5; stroke-linecap: square"/>
    <defs>
     <path id="m1ef9eab9a9" d="M 0 1.9 
C 0.503886 1.9 0.987202 1.699804 1.343503 1.343503 
C 1.699804 0.987202 1.9 0.503886 1.9 0 
C 1.9 -0.503886 1.699804 -0.987202 1.343503 -1.343503 
C 0.987202 -1.699804 0.503886 -1.9 0 -1.9 
C -0.503886 -1.9 -0.987202 -1.699804 -1.343503 -1.343503 
C -1.699804 -0.987202 -1.9 -0.503886 -1.9 0 
C -1.9 0.503886 -1.699804 0.987202 -1.343503 1.343503 
C -0.987202 1.699804 -0.503886 1.9 0 1.9 
z
" style="stroke: #4b718a"/>
    </defs>
    <g clip-path="url(#pd944ec5acc)">
     <use xlink:href="#m1ef9eab9a9" x="94.207575" y="267.686113" style="fill: #4b718a; stroke: #4b718a"/>
     <use xlink:href="#m1ef9eab9a9" x="113.726512" y="252.496752" style="fill: #4b718a; stroke: #4b718a"/>
     <use xlink:href="#m1ef9eab9a9" x="133.245449" y="238.923281" style="fill: #4b718a; stroke: #4b718a"/>
     <use xlink:href="#m1ef9eab9a9" x="152.764385" y="226.9657" style="fill: #4b718a; stroke: #4b718a"/>
     <use xlink:href="#m1ef9eab9a9" x="172.283322" y="214.361762" style="fill: #4b718a; stroke: #4b718a"/>
     <use xlink:href="#m1ef9eab9a9" x="191.802259" y="201.111469" style="fill: #4b718a; stroke: #4b718a"/>
     <use xlink:href="#m1ef9eab9a9" x="211.321196" y="179.781729" style="fill: #4b718a; stroke: #4b718a"/>
     <use xlink:href="#m1ef9eab9a9" x="230.840133" y="158.128811" style="fill: #4b718a; stroke: #4b718a"/>
     <use xlink:href="#m1ef9eab9a9" x="250.35907" y="157.805633" style="fill: #4b718a; stroke: #4b718a"/>
     <use xlink:href="#m1ef9eab9a9" x="269.878007" y="162.653301" style="fill: #4b718a; stroke: #4b718a"/>
     <use xlink:href="#m1ef9eab9a9" x="289.396944" y="191.092955" style="fill: #4b718a; stroke: #4b718a"/>
     <use xlink:href="#m1ef9eab9a9" x="308.91588" y="205.959137" style="fill: #4b718a; stroke: #4b718a"/>
     <use xlink:href="#m1ef9eab9a9" x="328.434817" y="216.947185" style="fill: #4b718a; stroke: #4b718a"/>
     <use xlink:href="#m1ef9eab9a9" x="347.953754" y="220.502142" style="fill: #4b718a; stroke: #4b718a"/>
     <use xlink:href="#m1ef9eab9a9" x="367.472691" y="223.410743" style="fill: #4b718a; stroke: #4b718a"/>
     <use xlink:href="#m1ef9eab9a9" x="386.991628" y="223.087565" style="fill: #4b718a; stroke: #4b718a"/>
     <use xlink:href="#m1ef9eab9a9" x="406.510565" y="217.593541" style="fill: #4b718a; stroke: #4b718a"/>
     <use xlink:href="#m1ef9eab9a9" x="426.029502" y="212.099517" style="fill: #4b718a; stroke: #4b718a"/>
     <use xlink:href="#m1ef9eab9a9" x="445.548439" y="214.361762" style="fill: #4b718a; stroke: #4b718a"/>
     <use xlink:href="#m1ef9eab9a9" x="465.067375" y="215.331296" style="fill: #4b718a; stroke: #4b718a"/>
     <use xlink:href="#m1ef9eab9a9" x="484.586312" y="179.135373" style="fill: #4b718a; stroke: #4b718a"/>
     <use xlink:href="#m1ef9eab9a9" x="504.105249" y="194.647911" style="fill: #4b718a; stroke: #4b718a"/>
     <use xlink:href="#m1ef9eab9a9" x="523.624186" y="213.715406" style="fill: #4b718a; stroke: #4b718a"/>
     <use xlink:href="#m1ef9eab9a9" x="543.143123" y="234.075613" style="fill: #4b718a; stroke: #4b718a"/>
     <use xlink:href="#m1ef9eab9a9" x="562.66206" y="248.941795" style="fill: #4b718a; stroke: #4b718a"/>
     <use xlink:href="#m1ef9eab9a9" x="582.180997" y="256.051709" style="fill: #4b718a; stroke: #4b718a"/>
    </g>
   </g>
   <g id="line2d_21">
    <path d="M 94.207575 305.497925 
L 113.726512 293.217165 
L 133.245449 284.168184 
L 152.764385 275.76556 
L 172.283322 266.393401 
L 191.802259 250.234507 
L 211.321196 235.691502 
L 230.840133 214.68494 
L 250.35907 198.202868 
L 269.878007 164.269191 
L 289.396944 164.269191 
L 308.91588 162.330123 
L 328.434817 158.451989 
L 347.953754 167.177792 
L 367.472691 164.592369 
L 386.991628 162.006945 
L 406.510565 161.037412 
L 426.029502 166.531436 
L 445.548439 170.40957 
L 465.067375 170.732748 
L 484.586312 116.438864 
L 504.105249 141.646739 
L 523.624186 165.238724 
L 543.143123 192.708844 
L 562.66206 204.343248 
L 582.180997 213.069051 
" clip-path="url(#pd944ec5acc)" style="fill: none; stroke: #c59a45; stroke-width: 2.5; stroke-linecap: square"/>
    <defs>
     <path id="m8ce1ade590" d="M 0 1.9 
C 0.503886 1.9 0.987202 1.699804 1.343503 1.343503 
C 1.699804 0.987202 1.9 0.503886 1.9 0 
C 1.9 -0.503886 1.699804 -0.987202 1.343503 -1.343503 
C 0.987202 -1.699804 0.503886 -1.9 0 -1.9 
C -0.503886 -1.9 -0.987202 -1.699804 -1.343503 -1.343503 
C -1.699804 -0.987202 -1.9 -0.503886 -1.9 0 
C -1.9 0.503886 -1.699804 0.987202 -1.343503 1.343503 
C -0.987202 1.699804 -0.503886 1.9 0 1.9 
z
" style="stroke: #c59a45"/>
    </defs>
    <g clip-path="url(#pd944ec5acc)">
     <use xlink:href="#m8ce1ade590" x="94.207575" y="305.497925" style="fill: #c59a45; stroke: #c59a45"/>
     <use xlink:href="#m8ce1ade590" x="113.726512" y="293.217165" style="fill: #c59a45; stroke: #c59a45"/>
     <use xlink:href="#m8ce1ade590" x="133.245449" y="284.168184" style="fill: #c59a45; stroke: #c59a45"/>
     <use xlink:href="#m8ce1ade590" x="152.764385" y="275.76556" style="fill: #c59a45; stroke: #c59a45"/>
     <use xlink:href="#m8ce1ade590" x="172.283322" y="266.393401" style="fill: #c59a45; stroke: #c59a45"/>
     <use xlink:href="#m8ce1ade590" x="191.802259" y="250.234507" style="fill: #c59a45; stroke: #c59a45"/>
     <use xlink:href="#m8ce1ade590" x="211.321196" y="235.691502" style="fill: #c59a45; stroke: #c59a45"/>
     <use xlink:href="#m8ce1ade590" x="230.840133" y="214.68494" style="fill: #c59a45; stroke: #c59a45"/>
     <use xlink:href="#m8ce1ade590" x="250.35907" y="198.202868" style="fill: #c59a45; stroke: #c59a45"/>
     <use xlink:href="#m8ce1ade590" x="269.878007" y="164.269191" style="fill: #c59a45; stroke: #c59a45"/>
     <use xlink:href="#m8ce1ade590" x="289.396944" y="164.269191" style="fill: #c59a45; stroke: #c59a45"/>
     <use xlink:href="#m8ce1ade590" x="308.91588" y="162.330123" style="fill: #c59a45; stroke: #c59a45"/>
     <use xlink:href="#m8ce1ade590" x="328.434817" y="158.451989" style="fill: #c59a45; stroke: #c59a45"/>
     <use xlink:href="#m8ce1ade590" x="347.953754" y="167.177792" style="fill: #c59a45; stroke: #c59a45"/>
     <use xlink:href="#m8ce1ade590" x="367.472691" y="164.592369" style="fill: #c59a45; stroke: #c59a45"/>
     <use xlink:href="#m8ce1ade590" x="386.991628" y="162.006945" style="fill: #c59a45; stroke: #c59a45"/>
     <use xlink:href="#m8ce1ade590" x="406.510565" y="161.037412" style="fill: #c59a45; stroke: #c59a45"/>
     <use xlink:href="#m8ce1ade590" x="426.029502" y="166.531436" style="fill: #c59a45; stroke: #c59a45"/>
     <use xlink:href="#m8ce1ade590" x="445.548439" y="170.40957" style="fill: #c59a45; stroke: #c59a45"/>
     <use xlink:href="#m8ce1ade590" x="465.067375" y="170.732748" style="fill: #c59a45; stroke: #c59a45"/>
     <use xlink:href="#m8ce1ade590" x="484.586312" y="116.438864" style="fill: #c59a45; stroke: #c59a45"/>
     <use xlink:href="#m8ce1ade590" x="504.105249" y="141.646739" style="fill: #c59a45; stroke: #c59a45"/>
     <use xlink:href="#m8ce1ade590" x="523.624186" y="165.238724" style="fill: #c59a45; stroke: #c59a45"/>
     <use xlink:href="#m8ce1ade590" x="543.143123" y="192.708844" style="fill: #c59a45; stroke: #c59a45"/>
     <use xlink:href="#m8ce1ade590" x="562.66206" y="204.343248" style="fill: #c59a45; stroke: #c59a45"/>
     <use xlink:href="#m8ce1ade590" x="582.180997" y="213.069051" style="fill: #c59a45; stroke: #c59a45"/>
    </g>
   </g>
   <g id="line2d_22">
    <path d="M 94.207575 112.56073 
L 113.726512 127.426912 
L 133.245449 139.384494 
L 152.764385 163.299657 
L 172.283322 184.629397 
L 191.802259 184.629397 
L 211.321196 187.861176 
L 230.840133 194.971089 
L 250.35907 179.135373 
L 269.878007 157.482455 
L 289.396944 186.245287 
L 308.91588 184.952575 
L 328.434817 192.062488 
L 347.953754 197.233334 
L 367.472691 206.282315 
L 386.991628 220.502142 
L 406.510565 214.361762 
L 426.029502 213.392229 
L 445.548439 203.373714 
L 465.067375 187.861176 
L 484.586312 129.042802 
L 504.105249 133.244114 
L 523.624186 130.981869 
L 543.143123 144.232162 
L 562.66206 146.171229 
L 582.180997 143.585806 
" clip-path="url(#pd944ec5acc)" style="fill: none; stroke: #172132; stroke-width: 2.5; stroke-linecap: square"/>
    <defs>
     <path id="m9d48c0168d" d="M 0 1.9 
C 0.503886 1.9 0.987202 1.699804 1.343503 1.343503 
C 1.699804 0.987202 1.9 0.503886 1.9 0 
C 1.9 -0.503886 1.699804 -0.987202 1.343503 -1.343503 
C 0.987202 -1.699804 0.503886 -1.9 0 -1.9 
C -0.503886 -1.9 -0.987202 -1.699804 -1.343503 -1.343503 
C -1.699804 -0.987202 -1.9 -0.503886 -1.9 0 
C -1.9 0.503886 -1.699804 0.987202 -1.343503 1.343503 
C -0.987202 1.699804 -0.503886 1.9 0 1.9 
z
" style="stroke: #172132"/>
    </defs>
    <g clip-path="url(#pd944ec5acc)">
     <use xlink:href="#m9d48c0168d" x="94.207575" y="112.56073" style="fill: #172132; stroke: #172132"/>
     <use xlink:href="#m9d48c0168d" x="113.726512" y="127.426912" style="fill: #172132; stroke: #172132"/>
     <use xlink:href="#m9d48c0168d" x="133.245449" y="139.384494" style="fill: #172132; stroke: #172132"/>
     <use xlink:href="#m9d48c0168d" x="152.764385" y="163.299657" style="fill: #172132; stroke: #172132"/>
     <use xlink:href="#m9d48c0168d" x="172.283322" y="184.629397" style="fill: #172132; stroke: #172132"/>
     <use xlink:href="#m9d48c0168d" x="191.802259" y="184.629397" style="fill: #172132; stroke: #172132"/>
     <use xlink:href="#m9d48c0168d" x="211.321196" y="187.861176" style="fill: #172132; stroke: #172132"/>
     <use xlink:href="#m9d48c0168d" x="230.840133" y="194.971089" style="fill: #172132; stroke: #172132"/>
     <use xlink:href="#m9d48c0168d" x="250.35907" y="179.135373" style="fill: #172132; stroke: #172132"/>
     <use xlink:href="#m9d48c0168d" x="269.878007" y="157.482455" style="fill: #172132; stroke: #172132"/>
     <use xlink:href="#m9d48c0168d" x="289.396944" y="186.245287" style="fill: #172132; stroke: #172132"/>
     <use xlink:href="#m9d48c0168d" x="308.91588" y="184.952575" style="fill: #172132; stroke: #172132"/>
     <use xlink:href="#m9d48c0168d" x="328.434817" y="192.062488" style="fill: #172132; stroke: #172132"/>
     <use xlink:href="#m9d48c0168d" x="347.953754" y="197.233334" style="fill: #172132; stroke: #172132"/>
     <use xlink:href="#m9d48c0168d" x="367.472691" y="206.282315" style="fill: #172132; stroke: #172132"/>
     <use xlink:href="#m9d48c0168d" x="386.991628" y="220.502142" style="fill: #172132; stroke: #172132"/>
     <use xlink:href="#m9d48c0168d" x="406.510565" y="214.361762" style="fill: #172132; stroke: #172132"/>
     <use xlink:href="#m9d48c0168d" x="426.029502" y="213.392229" style="fill: #172132; stroke: #172132"/>
     <use xlink:href="#m9d48c0168d" x="445.548439" y="203.373714" style="fill: #172132; stroke: #172132"/>
     <use xlink:href="#m9d48c0168d" x="465.067375" y="187.861176" style="fill: #172132; stroke: #172132"/>
     <use xlink:href="#m9d48c0168d" x="484.586312" y="129.042802" style="fill: #172132; stroke: #172132"/>
     <use xlink:href="#m9d48c0168d" x="504.105249" y="133.244114" style="fill: #172132; stroke: #172132"/>
     <use xlink:href="#m9d48c0168d" x="523.624186" y="130.981869" style="fill: #172132; stroke: #172132"/>
     <use xlink:href="#m9d48c0168d" x="543.143123" y="144.232162" style="fill: #172132; stroke: #172132"/>
     <use xlink:href="#m9d48c0168d" x="562.66206" y="146.171229" style="fill: #172132; stroke: #172132"/>
     <use xlink:href="#m9d48c0168d" x="582.180997" y="143.585806" style="fill: #172132; stroke: #172132"/>
    </g>
   </g>
   <g id="text_14">
    <text style="fill: #c9583e; font: 700 10.2px 'Arial', 'Helvetica Neue', 'DejaVu Sans'; text-anchor: start" x="587.646299" y="63.173122" transform="rotate(-0 587.646299 63.173122)">China  200.8%</text>
   </g>
   <g id="text_15">
    <text style="fill: #4b718a; font: 700 10.2px 'Arial', 'Helvetica Neue', 'DejaVu Sans'; text-anchor: start" x="587.646299" y="258.69574" transform="rotate(-0 587.646299 258.69574)">United States  140.3%</text>
   </g>
   <g id="text_16">
    <text style="fill: #c59a45; font: 700 10.2px 'Arial', 'Helvetica Neue', 'DejaVu Sans'; text-anchor: start" x="587.646299" y="215.713082" transform="rotate(-0 587.646299 215.713082)">Euro area  153.6%</text>
   </g>
   <g id="text_17">
    <text style="fill: #172132; font: 700 10.2px 'Arial', 'Helvetica Neue', 'DejaVu Sans'; text-anchor: start" x="587.646299" y="146.291994" transform="rotate(-0 587.646299 146.291994)">Japan  175.1%</text>
   </g>
   <g id="text_18">
    <text style="fill: #6f746f; font: 10px 'Arial', 'Helvetica Neue', 'DejaVu Sans'; text-anchor: start" x="86.4" y="28.9656" transform="rotate(-0 86.4 28.9656)">Credit to private non-financial sector</text>
   </g>
  </g>
  <g id="text_19">
   <text style="fill: #6f746f; font: 8.8px 'Arial', 'Helvetica Neue', 'DejaVu Sans'; text-anchor: end" x="833.76" y="472.392" transform="rotate(-0 833.76 472.392)">Source: BIS via Federal Reserve Bank of St. Louis (FRED)</text>
  </g>
 </g>
 <defs>
  <clipPath id="pd944ec5acc">
   <rect x="86.4" y="43.74" width="587.52" height="369.36"/>
  </clipPath>
 </defs>
</svg>
